<svg xmlns="http://www.w3.org/2000/svg" height="232" width="433" xmlns:v="https://vecta.io/nano"><style><![CDATA[.B{fill:#4f545c}.C{fill:#36393f}.D{fill:#72767d}]]></style><g fill-rule="evenodd"><path d="M114.277 17.04h178.338c10.864 0 19.67 8.807 19.67 19.67v.001c0 10.863-8.806 19.67-19.67 19.67h-4.913c-12.823 0-23.218 10.395-23.218 23.219s10.395 23.218 23.218 23.218h122.285c12.459 0 22.559 10.1 22.559 22.559s-10.1 22.559-22.559 22.559h-2.725c-10.372 0-18.78 8.408-18.78 18.78v.004c0 10.372-8.408 18.779-18.78 18.779H110.129c-17.568 0-31.81-14.241-31.81-31.81v-.002c0-17.568-14.242-31.809-31.81-31.809h-9.818c-20.264 0-36.69-16.427-36.69-36.691v-.004c0-20.264 16.426-36.691 36.69-36.691h46.133A15.73 15.73 0 0 0 98.55 32.767a15.73 15.73 0 0 1 15.727-15.727" fill-opacity=".3" class="B"/><path d="M135.6 62.237c-.348-.883-.545-1.84-.545-2.844v-1.512c0-.767-.546-1.422-1.243-1.493a1.36 1.36 0 0 0-1.07.352 1.39 1.39 0 0 0-.46 1.027v5.211a4.69 4.69 0 0 1-.104.976c-.452 2.139-2.352 3.752-4.624 3.752-.705 0-1.369-.166-1.97-.444-1.623-.75-2.757-2.382-2.757-4.284v-2.581c0-.872-.624-1.618-1.421-1.698a1.56 1.56 0 0 0-1.225.402 1.59 1.59 0 0 0-.525 1.175v6.957c0 1.21-.277 2.354-.758 3.383a8.03 8.03 0 0 1-1.443 2.124h15.985v-3.488c0-2.472.906-4.732 2.397-6.48l-.237-.535m-34.154 1.677c-.389-.441-.864-.685-1.459-.718-1.011-.054-2.284.509-3.141 1.412-1.632 1.721-3.065 4.858-3.26 7.141-.03.341-.013.67.027.991h7.833z" class="C"/><path d="M87.446 68.242a1 1 0 0 1 1 1v3.498h3.149a6.74 6.74 0 0 1-.002-1.163c.237-2.763 1.836-6.273 3.802-8.346 1.259-1.326 3.106-2.123 4.705-2.032.482.027.926.151 1.346.325v-1.966a.5.5 0 0 0-.5-.5H88.395a2.51 2.51 0 0 1 .051.5v2.89a1 1 0 0 1-1 1zm-33.609 4.397c-.002-.723.338-1.429 1.014-2.099l.298-.285c.402-.377 1.009-.946.869-1.22-.056-.106-.525-.241-1.124-.146-2.212.367-4.696 2.193-6.151 3.646-.088.088-.19.149-.297.198v.007h5.403c-.002-.035-.012-.067-.012-.101m4.771-10.022c3.877-.754 7.794-2.144 11.582-3.486.067-.025.138-.048.206-.073h-6.45-4.454c-.107.101-.232.184-.381.23-.35.107-3.402 1.098-3.055 2.798.175.861 1.674.703 2.552.531" class="B"/><path d="M72.543 66.198a4.83 4.83 0 0 1 .381-.464c.704-.755 4.274-3.432 6.571-2.66.543.184 1.477.728 1.63 2.303.207 2.131-2.09 4.55-4.364 5.471-.655.265-1.281.396-1.859.396-1 0-1.857-.391-2.467-1.155-.836-1.049-.791-2.649.108-3.891m-17.976.719c1.16-.196 2.62.022 3.228 1.202.833 1.616-.54 2.903-1.277 3.596l-.258.246c-.382.379-.423.595-.423.671 0 .033.019.071.034.108h2.166c.41-.267.873-.624 1.42-1.082l.784-.638c1.172-.884 2.995-1.525 4.427-.97.934.362 1.564 1.185 1.774 2.316.023.127.034.25.045.374h19.96v-3.498a1 1 0 0 1 1-1v-4.794a1 1 0 0 1-1-1v-2.89a.5.5 0 0 0-.5-.5h-9.438c-.041.02-.073.052-.118.066l-5.532 1.891c-3.857 1.369-7.845 2.783-11.869 3.565-.602.117-1.132.169-1.597.169-2.525 0-3.145-1.519-3.297-2.263-.285-1.396.3-2.544 1.284-3.428h-6.433a.5.5 0 0 0-.5.5v10.55c1.706-1.441 3.955-2.833 6.12-3.191" class="C"/><path d="M63.943 71.914c-.58-.225-1.677.084-2.499.704l-.149.122h3.181c-.123-.667-.421-.783-.533-.826m12.066-2.919c1.76-.714 3.214-2.51 3.125-3.425-.051-.523-.217-.58-.28-.601-.09-.031-.194-.044-.309-.044-1.143 0-3.426 1.386-4.157 2.173-.081.085-.155.174-.222.268-.354.489-.428 1.149-.168 1.476.483.603 1.36.415 2.011.153" class="B"/><path d="M130.295 92.831a1 1 0 0 1-1 1H32.308l14.837 51.929a3 3 0 0 0 2.884 2.175h6.634c.449-12.84 11.029-23.15 23.978-23.15s23.529 10.31 23.979 23.15h15.325c-1.397-1.6-2.294-3.63-2.461-5.829a10.02 10.02 0 0 1 2.91-7.856 10.03 10.03 0 0 1 10-2.512c3.324.989 5.834 3.737 6.805 7.066l2.664 9.131h5.129v-16.95c0-6.444 3.227-12.143 8.149-15.579 1.273-.888 1.12-2.764-.266-3.463-6.21-3.124-10.483-9.545-10.483-16.958v-1.389c-1.024-.108-2.001-.372-2.91-.765z" class="C"/><path d="M78.008 138.619c.537-.144 1.081.183 1.218.718.006.021 0 .043.004.064.461-.068.93-.116 1.411-.116 1.3 0 2.538.263 3.666.735.008-.016.007-.035.016-.051a1 1 0 0 1 1.358-.397c3.368 1.846 5.46 5.375 5.46 9.213 0 5.79-4.711 10.5-10.5 10.5s-10.5-4.71-10.5-10.5c0-4.79 3.235-8.971 7.867-10.166m-10.033 4.192a13.89 13.89 0 0 0-1.334 5.974 14.02 14.02 0 0 0 14 14 14.02 14.02 0 0 0 14-14 14.02 14.02 0 0 0-14-14c-1.82 0-3.59.344-5.262 1.022-.495.201-1.05-.029-1.274-.507a15.03 15.03 0 0 0-3.019 1.923c.355.402.335 1.013-.058 1.384-.523.494-1.013 1.034-1.455 1.604a1 1 0 0 1-.791.387c-.203 0-.406-.067-.583-.195a15.76 15.76 0 0 0-.669 1.102c.473.248.675.82.445 1.306" class="B"/><path d="m78.5079 140.5545c-3.749.968-6.367 4.353-6.367 8.23 0 4.687 3.813 8.5 8.5 8.5s8.5-3.813 8.5-8.5c0-3.106-1.694-5.964-4.421-7.459-.468-.256-.64-.83-.413-1.305-1.128-.473-2.366-.736-3.666-.736-.481 0-.95.048-1.411.117.097.513-.209 1.021-.722 1.153" class="C"/><path d="M322.711 161.005v9.28c0 .171-.018.339-.051.5h12.551a.5.5 0 0 0 .5-.5v-26.86c-.754-1.154-2.054-1.886-3.419-1.819a4.03 4.03 0 0 0-3.934 4.004v3.025c0 3.923-2.888 7.175-6.647 7.766v3.604a1 1 0 0 1 1 1" class="B"/><path d="M320.711 170.285v-9.28a1 1 0 0 1 1-1V156.4a7.82 7.82 0 0 1-1.223.105c-4.349 0-7.88-3.531-7.88-7.87v-3.321c0-1.996-1.624-3.62-3.62-3.62-2.006 0-3.63 1.624-3.63 3.62v2.851a6.63 6.63 0 0 1-6.62 6.62c-3.66 0-6.63-2.97-6.63-6.62 0-4.012-3.264-7.276-7.275-7.276h-.846a7.16 7.16 0 0 0-1.276.12v29.276a.5.5 0 0 0 .5.5h15 22a.5.5 0 0 0 .5-.5" class="C"/><path d="M103.496 177.93h5.944c1.002-4.253 3.124-9.335 7.522-14.134-4.417 2.355-10.467 6.761-13.466 14.134" class="B"/><path d="M89.515 186.82a1.43 1.43 0 0 0 1.428 1.429h2.642v-2.643-3.856h-2.642a1.43 1.43 0 0 0-1.428 1.428z" class="C"/><path d="M108.659 192.004h-6.993c.362 16.8 9.787 25.778 15.76 29.794-9.269-12.185-9.063-25.799-8.767-29.794" class="B"/><path d="M248.53 153.785v4.8a1.4 1.4 0 0 0 1.4 1.4h10.8a6.41 6.41 0 0 1 6.4 6.4c0 1.705-.674 3.252-1.765 4.4h14.845a.5.5 0 0 0 .5-.5v-28.607c-2.369 1.201-4 3.654-4 6.487v4.99a6.64 6.64 0 0 1-6.63 6.63 6.64 6.64 0 0 1-6.634-6.627v-9.204a1.16 1.16 0 0 0-1.169-1.169 1.17 1.17 0 0 0-1.169 1.168v3.08a6.26 6.26 0 0 1-6.246 6.249h-.158-.004a6.05 6.05 0 0 1-4.307-1.783c-1.152-1.152-1.786-2.682-1.786-4.311v-.786a6.44 6.44 0 0 0-1.898-4.582c-1.085-1.086-2.489-1.736-3.999-1.87v3.008c3.504 2.331 5.82 6.312 5.82 10.827" class="C"/><path d="M246.93 137.985h-3.813c1.893.22 3.642 1.056 5.007 2.421 1.601 1.601 2.483 3.731 2.483 5.996v.786a4.07 4.07 0 0 0 4.094 4.094h.003.158c2.34-.002 4.246-1.907 4.246-4.249v-3.08c0-1.747 1.421-3.168 3.169-3.168a3.15 3.15 0 0 1 2.241.928c.599.598.928 1.394.928 2.241v9.204c0 2.552 2.077 4.627 4.63 4.627s4.634-2.077 4.634-4.63v-4.99c0-3.96 2.5-7.339 6-8.667v-6.213a.5.5 0 0 0-.5-.5h-26.997a6.41 6.41 0 0 1-6.283 5.2m-81.387-93.8h-4.152c-8.72 0-15.918 6.601-16.882 15.066h8.99c.758-7.006 5.582-12.826 12.044-15.066m-12.152 50.8v-1.334h-9v1.334c0 9.374 7.626 17 17 17h2.6 1.554c-7.05-2.443-12.154-9.146-12.154-17" class="B"/><path d="M165.545 111.985h2.938 7.408 16.313v-23.7c0-1.379 1.121-2.5 2.5-2.5h1.562c-.437-1.597-.69-3.268-.69-5v-7.8c0-4.521 3.679-8.2 8.2-8.2h10.8a1 1 0 0 1 1 1h9.554a1 1 0 0 1 1-1h16.953v-3.6c0-9.374-7.626-17-17-17h-60.539c-6.462 2.24-11.287 8.06-12.044 15.067h4.54a1 1 0 1 1 0 2h-14.6a8.01 8.01 0 0 0-8 8v14.399a8.01 8.01 0 0 0 8 8h14.6a1 1 0 1 1 0 2h-4.649v1.334c0 7.854 5.105 14.557 12.154 17m39.431-39c0-2.635 1.439-4.945 3.566-6.2h-4.766a6.21 6.21 0 0 0-6.2 6.2v7.8c0 1.739.265 3.418.753 5h7.373a17.82 17.82 0 0 1-.726-5z" class="D"/><path d="M147.44 65.252a5 5 0 0 0-5 5v12.399a5 5 0 0 0 5 5h6.6a2 2 0 0 0 2-2V67.252a2 2 0 0 0-2-2z" class="B"/><path d="M214.576 66.785h-6.034c-2.127 1.255-3.566 3.565-3.566 6.2v7.8c0 1.735.262 3.409.725 5h19.002 7 15c.01 0 .019.003.029.003 1.254-.003 2.278.905 2.473 2.09.998-2.162 1.571-4.56 1.571-7.093v-7.8a6.21 6.21 0 0 0-6.2-6.2H226.13a1 1 0 0 1-1-1h-9.554a1 1 0 0 1-1 1" fill="#b9bbbe"/><path d="M265.131 166.386c0-2.427-1.974-4.4-4.4-4.4h-10.8c-1.875 0-3.4-1.526-3.4-3.401v-4.8c0-3.956-2.106-7.42-5.248-9.358v9.358c0 7.446-4.315 13.886-10.566 17h9.494 3 17.52c2.426 0 4.4-1.973 4.4-4.399m-17.037-39.024c-.397.268-.875.424-1.39.424h-9.453c1.468 2.582 2.558 5.332 3.224 8.2h6.456c2.426 0 4.4-1.974 4.4-4.4 0-2.021-1.377-3.71-3.237-4.224" class="B"/><path d="M182.62 113.985c3.404 2.211 5.667 6.037 5.671 10.387a1.41 1.41 0 0 0 1.4 1.413h2.563a2.57 2.57 0 0 1-.05-.5v-11.3zm39.663 56.8c9.374 0 17-7.626 17-17v-10.8c0-5.419-1.491-10.629-4.332-15.2h-3.247-7-14.244c.904.916 1.548 2.076 1.753 3.392.29 1.858-.243 3.74-1.461 5.162s-2.993 2.246-4.86 2.246h-30.309a1.1 1.1 0 0 0 0 2.2h2.293c7.169 0 13 5.832 13 13v4.8a1.4 1.4 0 0 0 1.4 1.4h15a6.41 6.41 0 0 1 6.401 6.4c0 1.705-.675 3.252-1.765 4.4h5.063zm-83.59-18.237c.101-.101.322-.379.202-.789l-3.694-12.663c-.931-3.194-3.785-5.509-7.103-5.762-.204-.015-.408-.023-.612-.023-2.122 0-4.164.84-5.677 2.353a8.02 8.02 0 0 0-2.33 6.29c.252 3.318 2.567 6.172 5.761 7.104l12.663 3.693c.41.119.689-.101.79-.203" class="D"/><path d="M211.676 166.386c0-2.427-1.974-4.4-4.4-4.4h-15c-1.875 0-3.4-1.526-3.4-3.401v-4.8c0-6.065-4.935-11-11-11h-2.293c-1.71 0-3.1-1.39-3.1-3.099s1.39-3.101 3.1-3.101h30.308c1.282 0 2.5-.563 3.342-1.547a4.35 4.35 0 0 0 1.003-3.552c-.328-2.11-2.267-3.701-4.508-3.701h-11.024-5.013c-1.872 0-3.398-1.53-3.4-3.411-.006-5.728-4.671-10.388-10.4-10.388h-7.408-4.492c-9.374 0-17 7.626-17 17v22.799c0 7.775 5.273 14.55 12.822 16.476.06.015.117.035.173.062.665.306 1.368.462 2.09.462h1.135 5.272 31.728 3 4.065c2.426 0 4.4-1.973 4.4-4.399m33.796-58.536c-.056-.008-.102-.036-.156-.049l-3.722 3.63c-.195.19-.447.284-.699.284a.99.99 0 0 1-.715-.302 1 1 0 0 1 .017-1.414l2.965-2.89c-.083-.216-.144-.44-.169-.671a9.64 9.64 0 0 1 1.55-6.425c-.022-.017-.048-.029-.069-.049-.752-.678-1.166-1.727-1.166-2.953 0-2.447-1.991-4.438-4.439-4.438s-4.439 1.991-4.439 4.438v.202c0 .667-.083 1.315-.226 1.94v14.633a1 1 0 0 1-1 1v3.692a1 1 0 0 1 1 1v5.808a2.51 2.51 0 0 1-.051.5h12.551a.5.5 0 0 0 .5-.5v-16.339a1 1 0 0 1 1-1v-.163a8.74 8.74 0 0 1-2.732.066" class="B"/><path d="M233.204 114.785a1 1 0 0 1-1-1v-10.782c-1.594 1.779-3.9 2.907-6.471 2.907a7.8 7.8 0 0 1-7.791-7.79v-1.514c0-.765-.546-1.421-1.242-1.491a1.37 1.37 0 0 0-1.071.352c-.293.263-.46.638-.46 1.027v5.21c0 2.607-2.121 4.728-4.728 4.728s-4.727-2.121-4.727-4.728v-2.58c0-.872-.624-1.618-1.421-1.698a1.55 1.55 0 0 0-1.224.401c-.334.302-.526.729-.526 1.175v6.957c0 4.43-3.604 8.034-8.034 8.034-.109 0-.207-.029-.305-.062v11.354a.5.5 0 0 0 .5.5h11.024 18.976 7a.5.5 0 0 0 .5-.5v-5.808a1 1 0 0 1 1-1z" class="C"/><path d="M232.204 98.907V88.285a.5.5 0 0 0-.5-.5h-7-30a.5.5 0 0 0-.5.5v23.769c.098-.032.196-.061.305-.061 3.327 0 6.034-2.707 6.034-6.034v-6.957a3.59 3.59 0 0 1 1.185-2.659 3.6 3.6 0 0 1 2.767-.908c1.804.182 3.219 1.802 3.219 3.689v2.58a2.73 2.73 0 0 0 2.727 2.728 2.73 2.73 0 0 0 2.728-2.728v-5.21c0-.953.408-1.868 1.118-2.511s1.661-.959 2.614-.858c1.705.172 3.041 1.701 3.041 3.481v1.514a5.8 5.8 0 0 0 5.791 5.79c3.106 0 5.718-2.129 6.471-5.003" class="B"/><path d="M247.247 97.304v-3.029c-.016-.072-.043-.139-.043-.215v-5.775a.5.5 0 0 0-.5-.5h-12.551a2.51 2.51 0 0 1 .051.5v4.3c1.173-1.236 2.828-2.012 4.665-2.012a6.45 6.45 0 0 1 6.439 6.438c0 .638.182 1.169.499 1.461l.057-.063c.429-.418.897-.778 1.383-1.105" class="D"/><path d="M251.568 105.161c2.009-1.667 3.037-4.208 2.75-6.797a.73.73 0 0 0-.627-.642c-2.372-.327-4.716.448-6.43 2.119-1.513 1.475-2.335 3.458-2.327 5.539l3.7-3.609a1 1 0 0 1 1.397 1.432l-4.715 4.598c.054.012.1.041.156.048a8.74 8.74 0 0 0 2.732-.066c1.161-.21 2.244-.647 3.2-1.273-.304-.423-.243-1.011.164-1.349" class="B"/><path d="M391.301 160.508c3.525-1.727 7.341-4.54 7.411-7.303.029-1.17-.198-2.004-.675-2.479-.367-.366-.93-.551-1.675-.551-.044 0-.089 0-.135.002h-.001c-1.448.041-3.271.742-4.925 1.658z" class="D"/><path d="M394.84 143.097c-.875.246-2.099.785-3.539 1.479v4.997c1.632-.793 3.356-1.354 4.868-1.397h.001c1.386-.046 2.485.342 3.279 1.132.881.878 1.306 2.206 1.262 3.947-.123 4.875-7.154 8.439-9.306 9.415-.036.017-.068.027-.104.042v6.849c4.155.447 10.856-1.998 13-5.518v-20.981c-2.757-1.364-6.62-.763-9.461.035" class="B"/><path d="M403.801 170.585a.5.5 0 0 0 .5-.5v-2.964c-1.633 1.495-3.843 2.686-6.152 3.464zm-12.5-37.5v9.279c1.169-.542 2.189-.965 2.998-1.192 4.017-1.128 7.423-1.21 10.002-.285v-7.802a.5.5 0 0 0-.5-.5H391.25a2.5 2.5 0 0 1 .051.5" class="D"/><path d="M351.801 170.585h15 9.376c-.025-.969.077-2.168.203-3.538.276-3.025.656-7.17-.802-8.176-.859-.593-2.481-.013-3.69.578-1.727.844-3.169 2.644-4.695 4.549-1.842 2.299-3.746 4.676-6.506 5.929a1 1 0 0 1-1.412-.87c-.035-.842.289-1.826.632-2.868.309-.936.824-2.501.511-2.884-.026-.032-.282-.298-1.504-.157-.751.087-1.478 1.013-2.247 1.993-1.135 1.445-2.781 3.536-5.366 2.758v2.186a.5.5 0 0 0 .5.5m4.351-17.423c.298-4.073-1.47-8.929-4.852-10.354v16.722c4.093-.484 4.75-4.98 4.852-6.368m17.726-20.374c-4.354 4.04-10.21 12.016-7.386 16.219 2.923 4.349 13.588-1.033 20.645-4.594l2.164-1.085v-10.243a.5.5 0 0 0-.5-.5h-14.777c-.045.07-.083.143-.146.203m13.324 22.245c-1.965 2.684-2.207 5.139-1.437 6.087.572.703 1.857.766 3.536.221v-8.24c-.928.674-1.68 1.36-2.099 1.932m-75.431-67.928l-2.674-4.422a1 1 0 0 1 1.711-1.035l2.746 4.541a7.65 7.65 0 0 0-.796-6.146 7.66 7.66 0 0 0-5.69-3.667c-.029-.004-.058-.005-.087-.005a.73.73 0 0 0-.682.469c-.854 2.237-.633 4.695.606 6.744 1.093 1.807 2.838 3.057 4.866 3.521m46.579 35.546a2.63 2.63 0 0 1-.243-.202l-3.64 1.829a1 1 0 0 1-1.343-.444 1 1 0 0 1 .445-1.343l3.702-1.861c-.013-.227-.007-.458.039-.69.2-1.004.56-1.946 1.04-2.814v-16.079c-.016-.07-.043-.135-.043-.209a2.68 2.68 0 0 0-2.669-2.654c-.715 0-1.387.28-1.892.786a2.66 2.66 0 0 0-.777 1.896l.049 10.167c0 4.626-3.301 8.489-7.668 9.366v9.886c0 .171-.018.339-.051.5h12.551a.5.5 0 0 0 .5-.5z" class="B"/><path d="M320.211 130.785h15 1.501 6.138a.5.5 0 0 0 .5-.5v-9.703c-5.215-.065-9.436-4.318-9.436-9.544V98.667c0-1.009-.821-1.83-1.83-1.83-1.016 0-1.836.821-1.836 1.83v3.769a5.96 5.96 0 0 1-5.949 5.949 5.96 5.96 0 0 1-5.949-5.949v-1.968a.88.88 0 0 0-.88-.88c-.494 0-.889.394-.889.88v10.317a3.67 3.67 0 0 1-3.667 3.667 3.67 3.67 0 0 1-3.666-3.667v-7.051a1.95 1.95 0 0 0-1.949-1.949 1.95 1.95 0 0 0-1.949 1.949v3.651 22.9a.5.5 0 0 0 .5.5z" class="C"/><path d="M305.35 93.285v7.035c.577-.331 1.237-.535 1.949-.535 2.177 0 3.948 1.771 3.948 3.949v7.051a1.67 1.67 0 0 0 1.667 1.667 1.67 1.67 0 0 0 1.667-1.667v-10.317c0-1.588 1.292-2.88 2.88-2.88 1.597 0 2.889 1.292 2.889 2.88v1.968c0 2.177 1.771 3.949 3.949 3.949s3.948-1.772 3.948-3.949v-3.769c0-2.112 1.719-3.83 3.831-3.83 2.118 0 3.836 1.718 3.836 3.83v12.371c0 4.125 3.326 7.482 7.436 7.544v-11.797a1 1 0 1 1 2 0v11.556c3.255-.841 5.668-3.791 5.668-7.303l-.049-10.162a4.64 4.64 0 0 1 4.669-4.692c1.012 0 1.945.335 2.712.888v-3.787a.5.5 0 0 0-.5-.5h-12.551c.033.161.051.329.051.5v7.687a1 1 0 1 1-2 0v-7.687a.5.5 0 0 0-.5-.5h-37a.5.5 0 0 0-.5.5" class="B"/><path d="M359.481 119.52l4.618-2.32a1 1 0 0 1 .898 1.787l-4.742 2.383c2.018.765 4.24.667 6.189-.313a7.66 7.66 0 0 0 4.101-5.387.73.73 0 0 0-.402-.802c-2.164-1.026-4.63-.998-6.77.077-1.888.948-3.271 2.59-3.892 4.575" class="D"/><g fill="#202225"><path d="M182.776 80.452c2.475 0 4.5-2.025 4.5-4.5v-.001c0-2.475-2.025-4.499-4.5-4.499s-4.5 2.024-4.5 4.499v.001c0 2.475 2.025 4.5 4.5 4.5M74.166 67.366c.067-.094.142-.183.221-.268.732-.787 3.015-2.173 4.158-2.173.116 0 .22.013.309.044.063.021.229.078.281.601.088.915-1.365 2.711-3.126 3.425-.651.262-1.528.45-2.01-.153-.261-.328-.187-.987.167-1.476m.736 3.878c.578 0 1.204-.131 1.859-.396 2.274-.921 4.571-3.34 4.364-5.471-.153-1.575-1.087-2.119-1.63-2.303-2.297-.771-5.867 1.905-6.571 2.66a4.83 4.83 0 0 0-.381.464c-.899 1.242-.944 2.842-.108 3.891.61.764 1.467 1.155 2.467 1.155m5.739 61.541c-2.078 0-4.102.394-6.014 1.169a1 1 0 0 0-.551 1.303c.007.016.021.027.029.043.224.478.779.708 1.274.507a13.94 13.94 0 0 1 5.262-1.022 14.02 14.02 0 0 1 14 14 14.02 14.02 0 0 1-14 14 14.02 14.02 0 0 1-14-14 13.89 13.89 0 0 1 1.334-5.974c.23-.486.028-1.058-.444-1.306-.013-.007-.02-.019-.033-.025a1 1 0 0 0-1.331.478c-1.013 2.143-1.526 4.44-1.526 6.827 0 8.822 7.178 16 16 16s16-7.178 16-16-7.178-16-16-16m-12.442 7.618a.99.99 0 0 0 .583.194 1 1 0 0 0 .791-.386c.441-.57.931-1.11 1.454-1.604.393-.371.413-.982.058-1.385-.007-.008-.01-.019-.017-.028a1 1 0 0 0-1.414-.04 16.02 16.02 0 0 0-1.662 1.83 1 1 0 0 0 .177 1.403c.009.007.021.01.03.016m10.309.151c.513-.132.819-.64.722-1.153-.004-.022.002-.043-.004-.065-.137-.535-.681-.861-1.218-.718-4.632 1.196-7.867 5.376-7.867 10.166 0 5.791 4.71 10.5 10.5 10.5s10.5-4.709 10.5-10.5c0-3.837-2.092-7.367-5.46-9.212a1 1 0 0 0-1.358.396c-.009.017-.008.035-.016.052-.227.475-.055 1.049.413 1.305 2.727 1.495 4.421 4.353 4.421 7.459a8.51 8.51 0 0 1-8.5 8.5 8.51 8.51 0 0 1-8.5-8.5c0-3.877 2.618-7.262 6.367-8.23m325.793.333c-2.579-.925-5.985-.843-10.002.285-.809.228-1.829.651-2.998 1.193v-5.78a4 4 0 0 1 4-4h5a4 4 0 0 1 4 4zm0 20.243c0 2.452-1.271 4.742-3.378 5.995-2.931 1.742-6.844 2.736-9.617 2.436l-.005-6.848c.036-.015.068-.025.104-.042 2.152-.976 9.183-4.54 9.306-9.415.044-1.741-.381-3.069-1.262-3.947-.794-.79-1.893-1.178-3.279-1.132h-.001c-1.512.043-3.236.604-4.868 1.397v-4.997c1.44-.694 2.665-1.233 3.539-1.479a25.19 25.19 0 0 1 2.492-.57c3.645-.632 6.969 2.224 6.969 5.924zm0 7.455a2 2 0 0 1-2 2h-4.152c2.309-.778 4.519-1.969 6.152-3.464zm-15-25.257l-2.164 1.085c-7.057 3.561-17.722 8.944-20.645 4.594-2.308-3.435 1.59-9.722 5.468-14.109 1.294-1.464 3.143-2.313 5.097-2.313h11.244a1 1 0 0 1 1 1zm0 7.355c-1.638 1.033-3.009 2.209-3.712 3.169-2.356 3.215-2.909 6.642-1.377 8.529.487.6 1.43 1.335 3.126 1.335.565 0 1.221-.092 1.963-.287v6.656a.5.5 0 0 1-.5.5h-8.541c-1.17 0-2.086-.999-1.993-2.166l.104-1.189c.358-3.907.763-8.335-1.657-10.005-1.348-.93-3.213-.789-5.704.428-2.129 1.04-3.708 3.009-5.378 5.094-1.197 1.494-2.422 3.024-3.857 4.165.01-.032.022-.065.032-.097.547-1.66 1.166-3.542.16-4.775-.633-.776-1.707-1.063-3.286-.879s-2.599 1.487-3.588 2.746a25.89 25.89 0 0 1-.597.737c-1.093 1.289-3.195.522-3.195-1.168v-.426c0-.838.587-1.525 1.393-1.758 3.103-.894 5.149-3.83 5.453-7.983s-1.208-8.84-4.266-11.263c-1.698-1.346-2.58-3.476-2.58-5.642v-2.819a1 1 0 0 1 1-1h16.665a1 1 0 0 1 .761 1.645c-3.944 4.568-7.962 11.33-4.895 15.892 1.203 1.789 3.091 2.494 5.366 2.494 5.121 0 12.202-3.572 17.84-6.417l1.263-.635zm0 10.658c-1.679.545-2.964.483-3.536-.221-.77-.948-.528-3.403 1.437-6.087.419-.572 1.171-1.257 2.099-1.931zm-12.921 5.706l-.141 1.669c-.075 1.053-.94 1.869-1.995 1.869h-7.443-15a.5.5 0 0 1-.5-.5V167.9c2.585.777 4.231-1.314 5.366-2.759.769-.98 1.496-1.905 2.247-1.993 1.222-.141 1.478.125 1.504.157.313.383-.202 1.948-.511 2.884-.343 1.042-.667 2.026-.632 2.868.013.333.191.637.474.811s.635.198.938.059c2.76-1.253 4.664-3.63 6.506-5.929 1.526-1.905 2.968-3.705 4.695-4.549 1.209-.59 2.831-1.17 3.69-.578 1.458 1.006 1.078 5.151.802 8.176zm-27.079 1.738a2 2 0 0 1-2 2h-7.59a2 2 0 0 1-2-2v-25.647l.001-9.353a1 1 0 0 1 1-1h4.138 5.477c.554 0 1.002.443 1 .996l-.026 35.004zm-11.641 2c.007-.033.013-.024.018 0zm-2.449-40h-15-14.361a.5.5 0 0 1-.5-.5v-22.9-3.65a1.95 1.95 0 0 1 1.949-1.95 1.95 1.95 0 0 1 1.948 1.95v7.05a3.67 3.67 0 0 0 3.667 3.667 3.67 3.67 0 0 0 3.667-3.667v-10.317c0-.485.394-.88.889-.88a.88.88 0 0 1 .88.88v1.969c0 3.28 2.668 5.948 5.949 5.948s5.948-2.668 5.948-5.948v-3.77c0-1.009.821-1.83 1.837-1.83 1.009 0 1.83.821 1.83 1.83v12.371a9.56 9.56 0 0 0 9.436 9.544v9.703a.5.5 0 0 1-.5.5h-6.138zm.501 8.219c0 .708-.705 1.165-1.373.927-.66-.234-1.365-.354-2.083-.325a6.04 6.04 0 0 0-5.898 6.005v3.024a5.88 5.88 0 0 1-6.057 5.867c-3.214-.094-5.693-2.897-5.693-6.113v-3.074c0-3.279-2.823-5.911-6.178-5.595-2.923.277-5.072 2.899-5.072 5.836v2.411c0 2.251-1.802 4.501-4.036 4.781-2.855.358-5.29-1.91-5.212-4.714.14-5.029-4.33-9.144-9.361-9.144h-.762c-.435 0-1.276.099-1.276.099l-.021-4.189a2 2 0 0 1 2-2.015h49.022a2 2 0 0 1 2 2zm-.001 28.779a1 1 0 0 1-1 1h-11a1 1 0 0 1-1-1v-7.779a1 1 0 1 0-2 0v4.779a4 4 0 0 1-4 4h-18.5-11.5a4 4 0 0 1-4-4v-21.857a2.03 2.03 0 0 1 1.914-2.024c4.039-.227 7.637 2.969 7.488 7.013-.149 4.006 3.284 7.268 7.356 6.831 3.407-.365 5.889-3.43 5.889-6.857v-2.458c0-1.731 1.168-3.307 2.863-3.657 2.33-.481 4.387 1.294 4.387 3.541v.968c0 3.182.266 6.279 2.634 8.404 2.098 1.883 4.841 1.969 6.469 1.714 3.759-.591 6.647-3.843 6.647-7.766v-3.024a4.03 4.03 0 0 1 3.934-4.005c.013-.001.027-.001.041-.002 1.873-.07 3.378 1.558 3.378 3.432zm-55-30.147a2.96 2.96 0 0 1-1.435 2.553c-2.729 1.615-4.565 4.582-4.565 7.976v4.78c0 2.418-1.763 4.582-4.169 4.818-2.762.27-5.096-1.899-5.096-4.605v-9.104c0-.651-.157-1.307-.52-1.846-.699-1.036-1.871-1.557-3.094-1.392-1.595.215-2.724 1.687-2.724 3.297v2.923a4.26 4.26 0 0 1-4.246 4.247h-.158-.003c-1.27 0-2.453-.576-3.249-1.602-.583-.751-.845-1.704-.845-2.655v-.373c0-2.003-.601-3.992-1.858-5.55a8.43 8.43 0 0 0-5.632-3.117h3.813a6.41 6.41 0 0 0 6.284-5.201h24.497a3 3 0 0 1 3 3zm0 31.149a2 2 0 0 1-2 2h-13.345c1.076-1.132 1.746-2.653 1.764-4.331.039-3.558-3.114-6.468-6.674-6.468h-10.525a1.4 1.4 0 0 1-1.401-1.401v-4.8c0-4.331-2.13-8.17-5.397-10.534-.261-.189-.422-.484-.422-.806v-1.285a1.01 1.01 0 0 1 1.309-.957 6.47 6.47 0 0 1 3.232 2.232c.924 1.182 1.355 2.68 1.355 4.181v.341c0 1.493.449 2.983 1.407 4.128a6.07 6.07 0 0 0 4.686 2.198h.005.158c3.449 0 6.245-2.796 6.245-6.247v-3.083a1.17 1.17 0 0 1 1.169-1.168 1.16 1.16 0 0 1 1.169 1.169v8.964c0 3.371 2.416 6.38 5.759 6.811a6.64 6.64 0 0 0 7.506-6.573v-4.991c0-.253.012-.503.038-.749.253-2.456 3.962-2.184 3.962.285zm-20.175 2h-17.325-3-9.494c6.251-3.114 10.565-9.554 10.565-17v-7.345c0-.865 1.034-1.334 1.671-.75 2.196 2.009 3.577 4.891 3.577 8.095v4.8a3.4 3.4 0 0 0 3.401 3.401h10.799c2.571 0 4.634 2.215 4.379 4.838-.222 2.287-2.277 3.961-4.573 3.961zm-43.562 0h-1.652c-1.311 0-2.324-1.256-1.933-2.507.18-.578.28-1.189.287-1.824.038-3.605-3.068-6.468-6.674-6.468h-14.726a1.4 1.4 0 0 1-1.4-1.401v-4.8c0-7.179-5.821-13-13-13h-2.293a1.1 1.1 0 1 1 0-2.2h30.308c1.867 0 3.639-.818 4.861-2.246 1.217-1.422 1.75-3.304 1.461-5.162-.043-.275-.105-.543-.185-.804-.394-1.288.558-2.588 1.905-2.588h10.771 7 2.104c.708 0 1.377.367 1.727.983a28.64 28.64 0 0 1 3.747 14.218v10.799c0 9.389-7.611 17-17 17zm-9.698 0h-4.065-3-31.728-5.272-1.135c-.722 0-1.425-.156-2.09-.462-.056-.027-.113-.047-.173-.062-7.549-1.926-12.822-8.701-12.822-16.476v-22.799c0-9.374 7.626-17 17-17h4.492 7.408c5.729 0 10.394 4.66 10.4 10.388.002 1.881 1.528 3.411 3.4 3.411h5.013 11.024c2.241 0 4.18 1.591 4.508 3.701a4.35 4.35 0 0 1-1.003 3.552c-.842.984-2.06 1.547-3.342 1.547h-30.308c-1.71 0-3.1 1.391-3.1 3.101s1.39 3.099 3.1 3.099h2.293c6.065 0 11 4.935 11 11v4.8c0 1.875 1.525 3.401 3.4 3.401h15c2.426 0 4.4 1.973 4.4 4.4s-1.974 4.399-4.4 4.399zm-60.229 0h-23.236c-2.072 0-2.98-2.616-1.353-3.899l.053-.042c.243-.191.391-.483.391-.793v-5.463c0-.025-.009-.049-.011-.074a1.02 1.02 0 0 0-.015-.109c-.014-.076-.037-.146-.067-.215-.009-.021-.009-.042-.02-.063-.005-.009-.012-.014-.017-.023a1.01 1.01 0 0 0-.192-.249c-.008-.008-.019-.012-.028-.02-.058-.051-.12-.098-.189-.135-.015-.007-.032-.009-.047-.016-.027-.013-.055-.02-.083-.029-.073-.026-.145-.043-.22-.052a.84.84 0 0 0-.1-.006c-.078-.001-.155.008-.233.025-.022.005-.044.002-.066.008-.137.041-8.655 2.695-15.04 9.835a3.97 3.97 0 0 1-2.961 1.32h-9.44a1 1 0 0 1-.539-1.835c5.417-3.501 9.34-9.123 10.584-15.681.364-1.917 1.991-3.333 3.942-3.333h11.883c1.292 0 2.566.261 3.764.741a9.85 9.85 0 0 0 .872.301l12.664 3.693a2.8 2.8 0 0 0 .783.112c.967 0 1.904-.501 2.431-1.407.409-.7.446-1.559.211-2.335-.168-.554.284-1.105.863-1.105h3.36v3.849a18.91 18.91 0 0 0 4.351 12.079c1.624 1.961.252 4.921-2.295 4.921zm-26.51-4.918c-4.208 3.486-6.953 7.291-8.739 10.93 1.143-3.855 3.323-8.276 7.385-12.426a1.01 1.01 0 0 1 1.719.705v.027c0 .296-.137.576-.365.764zm-17.041 12.063c1.973-4.854 5.27-8.421 8.552-10.964.884-.685 2.055.385 1.454 1.328-2.143 3.364-3.37 6.697-4.062 9.636zm14.799 2a2 2 0 0 1 2 2v3.677 2.464a2.01 2.01 0 0 1-2 2h-20.71a2 2 0 0 1-2-2v-2.464-3.677a2 2 0 0 1 2-2zm.27 15.603h-7.958c-.036-1.512.011-2.706.062-3.462h7.896a1.73 1.73 0 0 1 1.73 1.73v.002a1.73 1.73 0 0 1-1.73 1.73zm-6.103 22.247c-5.177-5.01-10.525-13.203-10.796-25.776h6.993c-.254 3.431-.442 13.952 5.377 24.571.56 1.023-.736 2.015-1.574 1.205zm6.939 10.714c-4.327-2.502-12.407-8.514-15.973-19.919 5.053 10.604 13.747 15.664 16.915 17.217.344.169.559.514.559.897v.938a1 1 0 0 1-1.501.867zm-22.086-32.961a1.73 1.73 0 0 1-1.73-1.73v-.002a1.73 1.73 0 0 1 1.73-1.73h2.367c.027 1.188.087 2.347.196 3.462zm-38.674-46.748c0-12.13 9.869-22 22-22s22 9.87 22 22-9.869 22-22 22-22-9.869-22-22zm80.051 3.763c-.101.102-.38.322-.79.203l-12.663-3.693c-3.194-.932-5.509-3.786-5.761-7.104-.178-2.338.671-4.631 2.33-6.29 1.514-1.513 3.555-2.353 5.678-2.353.203 0 .407.008.611.023 3.318.253 6.172 2.569 7.103 5.762l3.694 12.663a.78.78 0 0 1-.202.789zm-81.673-7.981c-.344 1.934-1.981 3.369-3.947 3.369h-3.043a3 3 0 0 1-2.884-2.176L33.401 97.656c-.548-1.916.891-3.825 2.884-3.825h93.01a1 1 0 1 0 0-2H27.337a3 3 0 0 1-2.885-2.175L21.32 78.691c-.231-.806-.184-1.69.231-2.418.55-.967 1.533-1.532 2.617-1.532H128.44a5 5 0 0 1 5 5v3.911c0 4.107 2.492 7.642 6.042 9.179a9.91 9.91 0 0 0 2.909.765v1.39c0 7.413 4.274 13.834 10.483 16.958 1.387.698 1.54 2.575.267 3.463-4.922 3.435-8.15 9.134-8.15 15.579v16.95a6.84 6.84 0 0 1-6.565-4.924l-1.227-4.207c-.971-3.329-3.481-6.076-6.805-7.066-3.625-1.081-7.423-.068-10 2.511a10.02 10.02 0 0 0-2.91 7.857 9.94 9.94 0 0 0 1.377 4.334c.393.661-.092 1.495-.861 1.495h-9.791c-1.965 0-3.602-1.435-3.946-3.369-1.999-11.229-11.828-19.782-23.622-19.782s-21.623 8.553-23.622 19.782zm-8.572-71.833c.106-.049.208-.11.296-.198 1.455-1.453 3.939-3.279 6.151-3.646.599-.095 1.068.04 1.124.146.14.274-.467.843-.869 1.22l-.298.285c-.675.67-1.016 1.376-1.014 2.099 0 .034.01.066.012.101h-5.402zm16.029.007h-3.181l.15-.123c.821-.62 1.918-.928 2.498-.704.112.043.41.16.532.818zm36.971-8.827v8.827h-7.833c-.04-.322-.057-.651-.028-.992.196-2.283 1.628-5.42 3.261-7.14.857-.904 2.129-1.467 3.14-1.412.595.033 1.07.276 1.46.717zm-53-4.355a.5.5 0 0 1 .5-.5h6.433c-.985.884-1.569 2.031-1.284 3.428.152.744.772 2.262 3.297 2.262a8.34 8.34 0 0 0 1.597-.169c4.023-.782 8.012-2.196 11.869-3.564l5.532-1.892c.045-.013.077-.046.118-.065h9.438a.5.5 0 0 1 .5.5v2.89a1 1 0 1 0 2 0v-2.89c0-.171-.018-.339-.051-.5h12.551a.5.5 0 0 1 .5.5v1.966c-.42-.174-.864-.298-1.346-.326-1.599-.09-3.447.707-4.705 2.033-1.967 2.073-3.566 5.583-3.803 8.345a6.85 6.85 0 0 0 .003 1.164h-3.149v-3.499a1 1 0 1 0-2 0v3.499h-19.96c-.012-.125-.022-.248-.045-.375-.21-1.13-.841-1.954-1.775-2.316-1.431-.555-3.254.087-4.427.971a20.52 20.52 0 0 0-.784.637c-.547.458-1.009.816-1.42 1.083H55.87c-.014-.038-.033-.076-.033-.109 0-.075.041-.292.422-.671l.259-.246c.737-.692 2.11-1.979 1.277-3.596-.609-1.179-2.068-1.397-3.228-1.202-2.165.359-4.414 1.75-6.12 3.192zm10.664-.271c.149-.046.274-.129.381-.229h4.455 6.449l-.206.072c-3.787 1.343-7.704 2.733-11.582 3.486-.878.172-2.377.331-2.552-.531-.347-1.7 2.705-2.69 3.055-2.798zm52.206-9.728a.5.5 0 0 1 .5-.5h30 4.961c-2.244 2.699-3.74 6.032-4.211 9.682-.025.187-.061.371-.08.558a9.87 9.87 0 0 0-1.64.306c-1.271.342-2.441.927-3.459 1.704-.212-.601-.333-1.244-.333-1.916v-1.513c0-1.78-1.336-3.31-3.041-3.482-.952-.096-1.904.217-2.613.858s-1.119 1.558-1.119 2.511v5.211a2.73 2.73 0 0 1-2.728 2.727 2.73 2.73 0 0 1-2.727-2.727v-2.581c0-1.886-1.414-3.506-3.22-3.689-1.009-.094-2.015.23-2.767.909s-1.184 1.65-1.184 2.659v6.957c0 2.453-1.473 4.564-3.579 5.507h-2.76zm14.267 17.703c.602.277 1.265.443 1.97.443 2.272 0 4.173-1.612 4.624-3.752.067-.315.104-.64.104-.975v-5.211c0-.389.167-.763.46-1.027a1.37 1.37 0 0 1 1.071-.352c.696.07 1.242.726 1.242 1.492v1.513c0 1.004.198 1.961.545 2.844.072.182.152.36.237.535-1.491 1.748-2.397 4.008-2.397 6.479v.489a3 3 0 0 1-3 3h-12.984c.588-.624 1.076-1.339 1.443-2.125a7.96 7.96 0 0 0 .757-3.382v-6.957a1.59 1.59 0 0 1 .525-1.175 1.56 1.56 0 0 1 1.225-.403c.797.081 1.421.827 1.421 1.699v2.581c0 1.901 1.135 3.534 2.757 4.284zm66.643 55.979a2.53 2.53 0 0 1-2.536 2.543c-.776 0-1.399-.636-1.4-1.413-.003-3.39-1.379-6.464-3.598-8.7-.619-.624-.157-1.686.722-1.686h4.789a2 2 0 0 1 2 2l.023 7.256zm-30.836-79.056h4.153 60.539c9.388 0 17 7.611 17 17v1.599a2 2 0 0 1-2 2h-14.952a1 1 0 1 0 0 2h18.445c3.425 0 6.201 2.777 6.201 6.201v7.799c0 1.765-.278 3.462-.784 5.062-.219.692-1.075 1.015-1.626.541-.435-.375-1.001-.603-1.62-.603-.024.003-.033 0-.043 0h-15-7-19.002-4.081c-2.069 0-3.825-1.573-3.99-3.635-.036-.451-.055-.906-.055-1.365v-7.799c0-3.424 2.776-6.201 6.201-6.201h4.765 6.034a1 1 0 1 0 0-2h-10.799c-4.529 0-8.201 3.671-8.201 8.201v7.799c0 1.733.253 3.404.69 5h-1.562a2.5 2.5 0 0 0-2.5 2.5v21.701a2 2 0 0 1-2 2h-14.313-7.408-2.938-1.554-2.6c-5.072 0-9.626-2.222-12.74-5.745-3.998-4.521-1.23-11.705 4.74-12.589h4.649a1 1 0 1 0 0-2h-14.6a8 8 0 0 1-8-8v-14.4a8 8 0 0 1 8-8h14.6a1 1 0 1 0 0-2h-4.54-6.569a2.01 2.01 0 0 1-1.935-2.534c1.966-7.213 8.568-12.532 16.395-12.532zm85.856 53.118a9.87 9.87 0 0 0-1.383 1.105c-.02.02-.036.042-.057.063-.317-.292-.499-.823-.499-1.461a6.45 6.45 0 0 0-6.439-6.438c-1.837 0-3.491.776-4.665 2.012v-4.3a2.51 2.51 0 0 0-.051-.5h12.551a.5.5 0 0 1 .5.5v5.775c0 .076.027.143.043.215zm-15.043-.137c0 3.379-2.471 6.394-5.835 6.713-.236.023-.476.033-.719.029-3.193-.038-5.708-2.763-5.708-5.957v-1.345c0-1.781-1.336-3.31-3.041-3.482-.954-.1-1.904.217-2.614.859a3.39 3.39 0 0 0-1.118 2.51v5.103c0 1.319-.889 2.531-2.184 2.783-1.741.338-3.271-.993-3.271-2.676v-2.58c0-1.886-1.415-3.507-3.22-3.688-1.007-.101-2.015.228-2.766.907a3.59 3.59 0 0 0-1.185 2.659v7.095c0 2.332-1.491 4.336-3.53 5.295-1.307.615-2.809-.39-2.809-1.834V89.784a2 2 0 0 1 2-2h28.5 5.5a2 2 0 0 1 2 2zm8.289 30.618h6.211a2.48 2.48 0 0 0 1.389-.423c2.064.57 3.533 2.587 3.187 4.898-.328 2.182-2.328 3.726-4.534 3.726h-4.704c-.887 0-1.692-.571-1.935-1.424-.389-1.365-.876-2.699-1.453-4-.582-1.308.408-2.777 1.839-2.777zm110.808 16.854c0-.878 1.043-1.323 1.692-.73 2.268 2.076 3.403 5.925 3.16 9.253-.09 1.212-.602 4.798-3.46 6.007-.658.279-1.392-.214-1.392-.928zm5.97-24.008l-3.702 1.86a1 1 0 1 0 .898 1.788l3.64-1.829.243.149v7.186a1 1 0 0 1-1 1h-11a1 1 0 0 1-1-1V120.4a9.57 9.57 0 0 0 7.668-9.367l-.049-10.167c-.003-.714.272-1.387.777-1.895.946-.95 2.477-1.101 3.783-.112.603.457.792 1.215.777 1.971-.001.078.027.146.044.218v14.334c0 1.057-.245 2.088-.616 3.076a9.42 9.42 0 0 0-.424 1.483 2.68 2.68 0 0 0-.039.69zM305.35 97.784a5 5 0 0 1 5-5h29a4 4 0 0 1 4 4v4.188a1 1 0 1 0 2 0v-3.188a5 5 0 0 1 5-5h3.712a4.29 4.29 0 0 1 4.288 4.288c-.767-.553-1.7-.888-2.713-.888-1.45 0-2.798.656-3.707 1.829-.668.86-.965 1.953-.961 3.042l.049 9.982a7.72 7.72 0 0 1-.031.684c-.318 3.521-5.637 3.166-5.637-.368v-4.569a1 1 0 1 0-2 0v7.926c0 2.362-2.735 3.701-4.583 2.231-1.737-1.383-2.853-3.515-2.853-5.904V98.783c0-1.829-1.236-3.495-3.029-3.864-2.463-.507-4.638 1.37-4.638 3.747v3.593c0 2.062-1.503 3.905-3.554 4.106-2.353.229-4.343-1.623-4.343-3.929v-1.842c0-1.396-.939-2.681-2.31-2.95-1.84-.362-3.459 1.046-3.459 2.823v10.223c0 .831-.566 1.603-1.385 1.738a1.67 1.67 0 0 1-1.949-1.644v-6.889c0-1.725-1.042-3.334-2.674-3.893-1.201-.411-2.314-.204-3.223.318zm54.651 20.476c.736-1.416 1.901-2.576 3.372-3.315a7.66 7.66 0 0 1 6.767-.079c.299.142.47.481.406.804-.468 2.349-1.963 4.312-4.101 5.387-1.551.779-3.274 1.001-4.93.674-.46-.091-.53-.729-.112-.939l3.594-1.805a1 1 0 0 0-.898-1.788l-3.42 1.719c-.424.213-.897-.238-.678-.658zm31.3 33.574c1.654-.916 3.477-1.617 4.925-1.658h.001c.046-.002.091-.002.135-.002.745 0 1.308.185 1.675.551.477.475.704 1.309.675 2.479-.07 2.763-3.886 5.577-7.411 7.303zm-269.006 40.145a1.73 1.73 0 0 1 1.73-1.731h15.206a1 1 0 1 0 0-2h-14.936a2 2 0 0 1-2-2v-.642-1.857a2 2 0 0 1 2-2h49.562a1.43 1.43 0 0 1 1.428 1.429v3.642a1.43 1.43 0 0 1-1.428 1.428h-18.795a1 1 0 1 0 0 2h18.795a3.4 3.4 0 0 0 1.428-.321v2.356a1.43 1.43 0 0 1-1.427 1.428h-49.833a1.73 1.73 0 0 1-1.73-1.73zm-28.71-6.373v.642a2 2 0 0 1-2 2h-.642a1.43 1.43 0 0 1-1.428-1.427v-3.643a1.43 1.43 0 0 1 1.429-1.429h.641a2 2 0 0 1 2 2zm-1.73 8.105h-.912a1.43 1.43 0 0 1-1.428-1.428v-2.356c.436.201.916.321 1.428.321h.912a1.73 1.73 0 0 1 1.73 1.731v.002a1.73 1.73 0 0 1-1.73 1.73zM311.928 83.5l-1.12-1.852a1 1 0 0 0-1.711 1.035l.899 1.486c.59.976-.652 2.022-1.516 1.279a7.74 7.74 0 0 1-1.575-1.865c-1.239-2.049-1.46-4.507-.606-6.743a.73.73 0 0 1 .682-.47.66.66 0 0 1 .088.005c2.377.282 4.451 1.619 5.69 3.667a7.68 7.68 0 0 1 1.023 2.814c.163 1.068-1.294 1.569-1.854.644zm109.047 87.284h-8.674a6 6 0 0 1-6-6v-31.7a2.5 2.5 0 0 0-2.5-2.5h-15-22-3.451a3 3 0 0 1-3-3v-1.721c0-1.135.943-2.067 2.076-1.996a8.61 8.61 0 0 0 .557.018c1.49 0 2.98-.348 4.36-1.041 2.688-1.352 4.568-3.816 5.161-6.766.248-1.233-.383-2.488-1.521-3.025-2.721-1.284-5.821-1.246-8.508.104-.2.101-.395.208-.584.321-.68.406-1.541-.049-1.541-.84V95.072a4.29 4.29 0 0 0-4.288-4.288H342.85h-9.678a1.49 1.49 0 0 1-1.356-2.097l.002-.005a1 1 0 1 0-1.809-.854l-.998 2.114a1.47 1.47 0 0 1-1.329.842h-10.519c-.515 0-.992-.268-1.258-.709l-1.106-1.829a2.72 2.72 0 0 0 .434-.748 9.65 9.65 0 0 0-7.962-13.113c-1.239-.143-2.403.592-2.846 1.758-1.14 3-.746 6.312 1.097 8.981 1.054 1.528 2.64 2.589 4.365 3.274.967.384 1.9.858 2.798.858a2.84 2.84 0 0 0 .37-.028l.942 1.556h-5.647a5 5 0 0 0-5 5v7.95 3.65l.001 19.099c0 2.379-1.929 4.301-4.308 4.301h-.832-15-3-24.108c-1.509 0-2.823-.895-3.54-2.223-.73-1.354-1.934-2.416-3.391-2.963.013-.104.032-.206.032-.314v-16.338a1 1 0 1 0-2 0v13.302c0 1.401-1.135 2.535-2.536 2.535h-7.929c-1.4 0-2.535-1.134-2.535-2.535v-2.771a1 1 0 1 0-2 0v2.771c0 1.401-1.135 2.535-2.536 2.535h-4.964-18.976-8.989c-1.4 0-2.535-1.134-2.535-2.535v-8.317c.097.032.196.061.305.061 4.43 0 8.034-3.604 8.034-8.034v-6.957a1.59 1.59 0 0 1 .526-1.175c.337-.305.773-.451 1.224-.401.797.08 1.421.826 1.421 1.698v2.37c0 2.468 1.799 4.676 4.255 4.915 2.818.275 5.2-1.942 5.2-4.705v-5.21c0-.388.167-.763.46-1.027s.675-.392 1.07-.351c.697.07 1.243.725 1.243 1.491v1.29c0 4.312 3.527 8.036 7.838 8.013 2.552-.013 4.84-1.139 6.424-2.907v10.782a1 1 0 1 0 2 0V99.153c.143-.625.225-1.273.225-1.94v-.074c0-2.104 1.409-4.023 3.465-4.462 2.871-.614 5.414 1.568 5.414 4.334 0 1.226.414 2.274 1.166 2.953.021.02.047.031.069.049-1.245 1.876-1.806 4.128-1.551 6.425a2.72 2.72 0 0 0 .17.671l-2.965 2.89a1 1 0 0 0-.018 1.414c.196.202.456.302.716.302a1 1 0 0 0 .698-.284l3.723-3.63 4.715-4.598a1 1 0 1 0-1.397-1.431l-1.243 1.212c-.816.796-2.116-.176-1.589-1.186.373-.715.862-1.375 1.459-1.957a7.66 7.66 0 0 1 6.421-2.12c.332.046.6.321.637.653.283 2.586-.745 5.122-2.751 6.787-.407.338-.468.926-.163 1.349.013.019.017.042.032.06a1 1 0 0 0 1.407.13c2.513-2.084 3.806-5.252 3.469-8.49-.132-1.268-1.107-2.305-2.371-2.473a9.71 9.71 0 0 0-4.695.537v-4.499c2.213-3.106 3.53-6.893 3.53-10.99v-7.799c0-4.351-3.409-7.912-7.694-8.175v-3.625c0-10.493-8.507-19-19-19h-64.692c-4.866 0-9.297 1.854-12.661 4.874h-6.913-1.361l.831-3.325a1 1 0 0 0-.727-1.212 1 1 0 0 0-1.213.727l-.953 3.81h-2.155l-.952-3.81a1 1 0 0 0-1.213-.727 1 1 0 0 0-.727 1.212l.831 3.325h-22.361a2.5 2.5 0 0 0-2.5 2.5v23.181h-5.87V59.559a2.5 2.5 0 0 0-2.5-2.5h-15-22-15a2.5 2.5 0 0 0-2.5 2.5v13.182l-22.075-.001c-1.473 0-2.931.549-3.914 1.646a4.97 4.97 0 0 0-1.097 4.728l3.169 11.091a5 5 0 0 0 4.807 3.626h.002a3.83 3.83 0 0 1 3.683 2.778l14.2 49.7a5.02 5.02 0 0 0 4.807 3.627h3.092c1.952 0 3.578 1.416 3.943 3.334 1.244 6.558 5.168 12.179 10.584 15.68a1 1 0 0 1-.539 1.835H36.372a1 1 0 1 0 0 2h61.61c2.624 0 4.363 2.635 3.429 5.086l-.022.059h-5.59c-1.086 0-1.987.787-2.174 1.82h-2.682a3.43 3.43 0 0 0-3.428 3.428v3.643a3.39 3.39 0 0 0 .138.911c-.081.291-.138.593-.138.91v3.642a3.43 3.43 0 0 0 3.428 3.428h2.682c.186 1.033 1.088 1.821 2.174 1.821h3.883c.575 25.838 21.648 34.185 21.864 34.267.115.044.235.066.356.066a1 1 0 0 0 1-1v-5.463c0-.015-.01-.027-.01-.04-.006-.139-.033-.275-.095-.401-.009-.016-.023-.029-.033-.045a.93.93 0 0 0-.155-.221c-9.14-9.14-11.438-20.294-11.908-27.163h9.379c1.087 0 1.989-.788 2.175-1.821h51.602a3.43 3.43 0 0 0 3.428-3.428v-9.105a3.43 3.43 0 0 0-3.428-3.429h-51.602c-.187-1.033-1.088-1.82-2.175-1.82h-6.625a29.05 29.05 0 0 1 1.997-3.503c.683-1.028 1.848-1.642 3.082-1.642h43.542 1.135 5.272 31.728 3 4.065 9.698 5.308 17.929 3 17.52 19.48 3 15 22 15 85.764a1 1 0 1 0 0-2zm-391.603 0h-3.199a1 1 0 1 0 0 2h3.199a1 1 0 1 0 0-2m-8.489 0h-.884a1 1 0 1 0 0 2h.884a1 1 0 1 0 0-2"/><path d="M150.839 188.249h-1.747a1 1 0 1 0 0 2h1.747a1 1 0 1 0 0-2M236.005 18.04h1.51v1.51a1 1 0 1 0 2 0v-1.51h1.511a1 1 0 1 0 0-2h-1.511v-1.51a1 1 0 1 0-2 0v1.51h-1.51a1 1 0 1 0 0 2m20.689-12.53h.51a1 1 0 0 1 1 1v.511a1 1 0 1 0 2 0v-.511a1 1 0 0 1 1-1h.51a1 1 0 1 0 0-2h-.51a1 1 0 0 1-1-1v-.51a1 1 0 1 0-2 0v.51a1 1 0 0 1-1 1h-.51a1 1 0 1 0 0 2m10.603 28.555c.256 0 .512-.098.707-.293l1.184-1.184a1 1 0 0 0-1.414-1.414l-1.184 1.184a1 1 0 0 0 0 1.414c.195.195.451.293.707.293m-5.44 3.025l-1.183 1.184a1 1 0 0 0 0 1.414c.195.195.451.293.707.293s.512-.098.707-.293l1.183-1.184a1 1 0 0 0-1.414-1.414m5.916 2.598c.195.195.451.293.707.293s.512-.098.707-.293a1 1 0 0 0 0-1.414l-1.184-1.184a1 1 0 0 0-1.414 1.414zm-7.1-8.514a1 1 0 0 0 0 1.414l1.183 1.184c.195.195.451.293.707.293s.512-.098.707-.293a1 1 0 0 0 0-1.414l-1.183-1.184a1 1 0 0 0-1.414 0m91.993 34.548c.256 0 .512-.098.707-.293l1.183-1.184a1 1 0 0 0-1.414-1.414l-1.183 1.184a1 1 0 0 0 0 1.414c.195.195.451.293.707.293m-5.916 5.916c.256 0 .512-.098.707-.293l1.183-1.184a1 1 0 0 0-1.414-1.414l-1.183 1.184a1 1 0 0 0 0 1.414c.195.195.451.293.707.293m6.392-.293c.195.195.451.293.707.293s.512-.098.707-.293a1 1 0 0 0 0-1.414l-1.183-1.184a1 1 0 0 0-1.414 1.414zm-5.916-5.916c.195.195.451.293.707.293s.512-.098.707-.293a1 1 0 0 0 0-1.414l-1.183-1.184a1 1 0 0 0-1.414 1.414zm26.66-18.446a1.51 1.51 0 0 1 1.51 1.51c0 .833-.677 1.511-1.51 1.511s-1.51-.678-1.51-1.511a1.51 1.51 0 0 1 1.51-1.51m0 5.021c1.936 0 3.51-1.576 3.51-3.511s-1.574-3.51-3.51-3.51-3.51 1.574-3.51 3.51 1.574 3.511 3.51 3.511"/></g></g></svg>