<svg id="Layer_2" data-name="Layer 2" xmlns="http://www.w3.org/2000/svg" viewBox="0 0 70.78 59"><defs><style>.cls-1{fill:#fff;}</style></defs><circle class="cls-1" cx="35.94" cy="35.94" r="6.97"/><path class="cls-1" d="M35.17,47.2H36.7A10.5,10.5,0,0,1,47.2,57.7V59a0,0,0,0,1,0,0H24.67a0,0,0,0,1,0,0V57.7A10.5,10.5,0,0,1,35.17,47.2Z"/><path class="cls-1" d="M50.4,33A20.38,20.38,0,0,0,33.21,64.35l3.66-2.24a16.09,16.09,0,1,1,26.86.29l3.77,2.07A20.19,20.19,0,0,0,70.78,53.4,20.4,20.4,0,0,0,50.4,33Z" transform="translate(-15 -18)"/><path class="cls-1" d="M50.39,18a35.37,35.37,0,0,0-30,54.19l3.67-2.25a30.71,30.71,0,0,1-4.8-16.55A31.1,31.1,0,1,1,76.9,69.63l3.76,2.07A35.37,35.37,0,0,0,50.39,18Z" transform="translate(-15 -18)"/></svg>