<svg id="Layer_1" data-name="Layer 1" xmlns="http://www.w3.org/2000/svg" viewBox="0 0 66.56 66.7"><defs><style>.cls-1{fill:#b6b8bb;}.cls-2{fill:#53575e;}.cls-3{fill:#f3f3f3;}.cls-4{fill:#53565d;}</style></defs><path class="cls-1" d="M87.82,52.83A33.28,33.28,0,1,1,54.56,19.65,33.37,33.37,0,0,1,87.82,52.83ZM55,76c2-.33,3.54,2.32,5.48,1.75C67.93,75.54,72.77,70.8,75,63c1.45-5.08.17-6.78-4.86-5.78a58.69,58.69,0,0,1-9.49,1.22C53,58.67,45.6,59.88,38,58c-3.14-.78-3.11-.3-3,3,0,.63-1.15,1.38-1,2C36.26,72.11,45.38,75.69,55,76ZM46.75,45.19h0a17.79,17.79,0,0,0,0-2.31,4.52,4.52,0,0,0-4.25-3.75c-1.83.07-3.28,1.65-3.47,3.93a29.24,29.24,0,0,0,0,3.86c.13,2.58,1.1,3.66,3.33,3.84,2.5.19,3.91-.81,4.38-3.26A12.72,12.72,0,0,0,46.75,45.19ZM69,45V44c0-.9.11-.11,0-1-.22-1.87-.41-3.5-2-3.8s-4,.95-4.38,2.5c-.58,2.36-.84,4.82.27,7.14.83,1.74,1.9,2.17,4.13,1.91a3.16,3.16,0,0,0,3-3C70.14,47,69,45.77,69,45Z" transform="translate(-21.26 -19.65)"/><path class="cls-2" d="M54.46,78.66a21,21,0,0,1-2.85-.17,23,23,0,0,1-15.19-9.2c-1.63-2.21-3.55-5.32-3.54-8.12s1.77-4.93,4.79-4.18c7.6,1.88,15.29,1.68,23,1.45a58.69,58.69,0,0,0,9.49-1.22c5-1,7,1.09,5.54,6.17C73.07,72.48,63.76,78.61,54.46,78.66ZM71.58,61.23a110,110,0,0,1-34,.1C43,71,66.09,71,71.58,61.23Z" transform="translate(-21.26 -19.65)"/><path class="cls-3" d="M71.58,61.23C66.09,71,43,71,37.56,61.33A110,110,0,0,0,71.58,61.23Z" transform="translate(-21.26 -19.65)"/><rect class="cls-4" x="17.74" y="19.35" width="8" height="13" rx="4"/><rect class="cls-4" x="40.74" y="19.35" width="8" height="13" rx="4"/></svg>