<svg id="Layer_3_copy" data-name="Layer 3 copy" xmlns="http://www.w3.org/2000/svg" viewBox="0 0 82.85 86"><defs><style>.cls-1{fill:#db514b;}.cls-2{fill:#dcdddf;}</style></defs><path class="cls-1" d="M84.72,64Z" transform="translate(-14 -12)"/><path class="cls-1" d="M21.88,64Z" transform="translate(-14 -12)"/><path class="cls-2" d="M90.53,38.27l-6.37,6.36a30.85,30.85,0,0,1,.75,6.76V71.88h7.87V51.39A38.76,38.76,0,0,0,90.53,38.27ZM82.2,24.54,76.63,30.1a32.4,32.4,0,0,1,4.53,6.39l5.75-5.76A39,39,0,0,0,82.2,24.54ZM53.39,12A39.42,39.42,0,0,0,14,51.39V71.88h7.88V51.39A31.5,31.5,0,0,1,53.39,19.88,31.08,31.08,0,0,1,70.6,25l5.67-5.68A39.18,39.18,0,0,0,53.39,12Z" transform="translate(-14 -12)"/><path class="cls-2" d="M31.27,64.34,14,81.61V72.84a7.5,7.5,0,0,1,.06-1,8.82,8.82,0,0,1,7.82-7.82,6,6,0,0,1,1-.06h6A9.15,9.15,0,0,1,31.27,64.34Z" transform="translate(-14 -12)"/><path class="cls-2" d="M37.64,72.84V80L25.28,92.36H22.84A8.72,8.72,0,0,1,16.79,90L37.05,69.69A8.61,8.61,0,0,1,37.64,72.84Z" transform="translate(-14 -12)"/><rect class="cls-2" x="55.15" y="52" width="23.64" height="28.36" rx="5.61"/><polygon class="cls-1" points="82.85 8.79 72.91 18.73 67.16 24.49 5.64 86 0.19 80.55 77.4 3.34 82.85 8.79"/></svg>