<svg xmlns="http://www.w3.org/2000/svg" viewBox="0 0 82.85 86" xmlns:v="https://vecta.io/nano"><path d="M70.72 52zM7.88 52z" fill="#db514b"/><g fill="#dcdddf"><path d="M76.53 26.27l-6.37 6.36a30.85 30.85 0 0 1 .75 6.76v20.49h7.87V39.39a38.76 38.76 0 0 0-2.25-13.12zM68.2 12.54l-5.57 5.56a32.4 32.4 0 0 1 4.53 6.39l5.75-5.76a39 39 0 0 0-4.71-6.19zM39.39 0C17.642.017.017 17.642 0 39.39v20.49h7.88V39.39A31.5 31.5 0 0 1 39.39 7.88 31.08 31.08 0 0 1 56.6 13l5.67-5.68A39.18 39.18 0 0 0 39.39 0z"/><path d="M17.27 52.34L0 69.61v-8.77a7.5 7.5 0 0 1 .06-1 8.82 8.82 0 0 1 7.82-7.82 6 6 0 0 1 1-.06h6a9.15 9.15 0 0 1 2.39.38zm6.37 8.5V68L11.28 80.36H8.84A8.72 8.72 0 0 1 2.79 78l20.26-20.31a8.61 8.61 0 0 1 .59 3.15z"/><rect x="55.15" y="52" width="23.64" height="28.36" rx="5.61"/></g><path d="M82.85 8.79l-9.94 9.94-5.75 5.76L5.64 86 .19 80.55 77.4 3.34l5.45 5.45z" fill="#db514b"/></svg>