<svg xmlns="http://www.w3.org/2000/svg" height="200" width="415" xmlns:v="https://vecta.io/nano"><style><![CDATA[.B{fill:#4f545c}.C{fill:#72767d}.D{fill:#36393e}]]></style><g fill-rule="evenodd"><path d="M322.922 36.235v.003c0 16.331 13.239 29.57 29.57 29.57h22.64a19.06 19.06 0 0 1 19.057 19.057 19.06 19.06 0 0 1-19.057 19.057h-32.407c-11.979 0-21.69 9.71-21.69 21.689v.004c0 11.98 9.711 21.691 21.69 21.691h45.722c14.138 0 25.598 11.46 25.598 25.597s-11.46 25.599-25.598 25.599H46.655c-21.323 0-38.61-17.287-38.61-38.61v-.009c0-21.324 17.287-38.61 38.61-38.61h77.323c16.569 0 30-13.432 30-30V36.665c0-16.569 13.432-30 30-30h109.374c16.331 0 29.57 13.239 29.57 29.57" fill-opacity=".3" class="B"/><path d="M231.8 112.974v7.8c0 6.263-3.06 11.811-7.749 15.275-.387 6.869-4.422 12.769-10.211 15.78l-10.867 45.674h32.102v-.977c0-3.455 2.582-6.311 5.916-6.759l12.823-53.897c-1.49-.417-2.591-1.768-2.591-3.383v-17.693c0-1.272.685-2.379 1.702-3a2.53 2.53 0 0 1 1.839-.792h4.966l2.351-9.879h-1.979c-.53 0-1.047-.164-1.478-.47l-.467-.332c-.011-.008-.024-.013-.036-.02l-13.837-8.848c-1.02-.651-1.629-1.761-1.629-2.967a3.51 3.51 0 0 1 1.629-2.97l13.837-8.846c.011-.007.023-.012.033-.019l.118-.083-13.263-55.745-16.659 70.019a1 1 0 0 1-1.204.741l-3.04 12.777v.44c4.285.263 7.694 3.823 7.694 8.174M34.099 197.503h12.912l-6.456-27.135z" class="D"/><path d="M95.61 111.185c5.756-5.756 7.587-26.43 7.955-31.502-5.073.367-25.747 2.198-31.503 7.954-3.321 3.32-5.094 7.973-4.846 12.661.178 3.344 1.198 8.33 3.506 10.882 2.666 2.946 9.183 4.882 13.114 4.882a16.54 16.54 0 0 0 11.774-4.877" class="C"/><path d="M372.528 146.017c2.724-4.44 5.98-8.596 9.757-12.373l1.415 1.414c-3.806 3.805-7.077 8.002-9.779 12.499 6.503 6.356 16.959 6.317 23.405-.129 5.759-5.758 7.588-26.431 7.954-31.503-5.07.367-25.746 2.198-31.502 7.955-6.042 6.042-6.454 15.606-1.25 22.137" class="B"/><path d="M336.491 197.474a6.79 6.79 0 0 1 4.065-6.222c-.651-.273-1.365-.425-2.114-.425h-3.172c-3.021 0-5.479 2.458-5.479 5.479v1.141z" class="C"/><path d="M244.755 191.699h-2.853c-2.662 0-4.827 2.165-4.827 4.827v1.027l12.507-.05v-.977c0-2.662-2.165-4.827-4.827-4.827" class="D"/><path d="M351.466 192.68h-8.194a4.79 4.79 0 0 0-4.782 4.782l17.717.041c.023 0 .041-.018.041-.041a4.79 4.79 0 0 0-4.782-4.782" class="B"/><path d="M121.398 185.525v9.686c0 1.654 1.346 3 3 3h2.58c1.654 0 3-1.346 3-3v-9.686z" class="C"/><path d="M140.415 153.974c-10.494 0-19-8.506-19-19v-1.39c-3.015-.315-5.636-1.976-7.249-4.369h-7.99c-9.185 0-16.632 7.447-16.632 16.632v49.363a3 3 0 0 0 3 3h2.579a3 3 0 0 0 3-3v-8.686a3 3 0 0 1 3-3h45.486a6.85 6.85 0 0 1-2.039-4.877v-14.106a1 1 0 0 1 1-1v-9.567z" class="B"/><path d="M185.523 195.21v-11.383c0-.434.284-.804.691-.952 4.263-1.544 7.125-5.602 7.125-10.105v-18.796H145.57v9.567a1 1 0 0 1 1 1v14.106c0 2.678 2.169 4.859 4.843 4.877.566.004 1.034.435 1.034 1v10.686a3 3 0 0 0 3 3h2.58a3 3 0 0 0 3-3v-9.686a2 2 0 0 1 2-2h11.917a2 2 0 0 1 2 2v9.686a3 3 0 0 0 3 3h2.579a3 3 0 0 0 3-3" class="C"/><path d="M144.568 84.174h-4.153c-8.719 0-15.918 6.601-16.882 15.066h8.991c.757-7.006 5.582-12.826 12.044-15.066m-12.153 50.8v-1.333h-9v1.333c0 9.374 7.626 17 17 17h4.154c-7.05-2.443-12.154-9.147-12.154-17" class="B"/><path d="M184 120.774v-7.8c0-2.635 1.439-4.945 3.566-6.2H182.8a6.21 6.21 0 0 0-6.2 6.2v7.8c0 9.374 7.626 17 17 17h2.553c-7.049-2.443-12.153-9.147-12.153-17m-61.536 10.867h14.6a1 1 0 1 1 0 2h-4.649v1.333c0 7.854 5.105 14.557 12.154 17h60.538c8.533 0 15.597-6.326 16.799-14.531a18.88 18.88 0 0 1-9.106 2.331h-19.2c-10.476 0-19-8.523-19-19v-7.8c0-4.521 3.679-8.2 8.2-8.2h10.8a1 1 0 0 1 1 1h9.554a1 1 0 0 1 1-1h16.953v-3.599c0-9.148-7.268-16.611-16.33-16.967-.097 1.68-.566 3.27-1.409 4.722a1 1 0 0 1-1.367.363c-.017-.01-.026-.027-.042-.038a11.73 11.73 0 0 1-1.526 1.736c.009.01.022.014.03.025a1 1 0 0 1-.151 1.405c-1.92 1.549-4.405 2.767-7.184 3.524-2.077.566-4.231.856-6.317.856-.558 0-1.111-.021-1.656-.063-9.75-.746-18.587-4.265-25.553-10.176-.496-.421-1.003-.89-1.267-1.587-.102-.266-.14-.534-.152-.8h-14.615c-6.462 2.24-11.287 8.059-12.044 15.066h4.54a1 1 0 1 1 0 2h-14.6a8.01 8.01 0 0 0-8 8v14.4a8.01 8.01 0 0 0 8 8" class="C"/><path d="M121.464 110.241v12.4a5 5 0 0 0 5 5h6.6a2 2 0 0 0 2-2v-18.4a2 2 0 0 0-2-2h-6.6a5 5 0 0 0-5 5" class="B"/><path d="M200.032 124.649h5.877a2.95 2.95 0 0 1 2.939 2.939 2.95 2.95 0 0 1-2.939 2.938h-5.877a2.95 2.95 0 0 1-2.939-2.938 2.95 2.95 0 0 1 2.939-2.939m16.424 0h3.526a2.95 2.95 0 0 1 2.939 2.939 2.95 2.95 0 0 1-2.939 2.938h-3.526a2.95 2.95 0 0 1-2.939-2.938 2.95 2.95 0 0 1 2.939-2.939M193.6 106.773h-6.034c-2.127 1.255-3.566 3.565-3.566 6.201v7.799c0 7.854 5.105 14.557 12.154 17h16.647c9.374 0 17-7.625 17-17v-7.799a6.21 6.21 0 0 0-6.201-6.201h-18.445a1 1 0 0 1-1-1H194.6a1 1 0 0 1-1 1" fill="#b9bbbe"/><path d="M200.032 130.526h5.877a2.95 2.95 0 0 0 2.939-2.938 2.95 2.95 0 0 0-2.939-2.939h-5.877a2.95 2.95 0 0 0-2.939 2.939 2.95 2.95 0 0 0 2.939 2.938m16.424 0h3.526a2.95 2.95 0 0 0 2.939-2.938 2.95 2.95 0 0 0-2.939-2.939h-3.526a2.95 2.95 0 0 0-2.939 2.939 2.95 2.95 0 0 0 2.939 2.938" class="B"/><path d="M156.552 51.754a1 1 0 0 1-.187 1.982c-.062 0-.125-.005-.187-.017-.317-.06-6.266-1.269-10.659-6.352-.512 1.292-.53 2.459-.049 3.567.712 1.636 2.601 3.147 5.182 4.146 4.393 1.699 9.003 1.969 12.981.758-.817-.761-1.733-1.872-2.124-2.346l-.12-.145c-.728-.873-1.376-1.776-2.002-2.65-1.471-2.054-2.862-3.994-5.092-5.266-1.324-.755-2.789-1.152-4.128-1.152-.66 0-1.289.096-1.855.294-.642.224-1.197.568-1.66 1.027 4.006 4.956 9.828 6.14 9.9 6.154" class="C"/><path d="M214.48 19.923c1.257.838 2.625.972 4.176.408-2.242-2.065-3.671-4.418-4.556-6.347a1 1 0 0 1 .491-1.327 1 1 0 0 1 1.326.492c.854 1.859 2.287 4.149 4.554 6.089a4.38 4.38 0 0 0 1.067-1.618c.649-1.696.387-3.997-.681-6.006-1.206-2.268-3.105-3.714-5.115-5.247l-2.589-2.078-.144-.126-2.366-2.177c-1.242 3.927-1.109 8.543.462 12.985.18.51-.082 1.062-.581 1.259.636 1.497 1.512 2.901 2.629 3.91a.99.99 0 0 1 1.327-.217" class="B"/><path d="M64.214 159.526a7.89 7.89 0 0 0 8.396-3.06l7.464-10.547c.235-.333.122-.654.063-.776a.75.75 0 0 0-.649-.428h-.001l-12.907-.623-.373-.009a7.89 7.89 0 0 0-7.21 4.735c-.909 2.104-.855 4.492.149 6.553s2.851 3.574 5.068 4.155" class="C"/><path d="M202.958 89.255c-.438-.29-.588-.869-.32-1.329 1.392-2.398 1.538-5.172.436-8.246-.053-.147-.122-.285-.18-.428-4.538 2.991-9.811 5.028-15.494 5.911a1.02 1.02 0 0 1-.155.011 1 1 0 0 1-.152-1.988c5.466-.848 10.528-2.817 14.864-5.71-1.179-1.783-2.907-3.227-5.048-4.164-3.437-1.503-7.483-1.554-10.822-.135-1.795.762-3.442 1.772-5.186 2.841l-2.79 1.658c-3.157 1.761-6.546 3.084-10.074 3.934a39.68 39.68 0 0 1-3.669.704l-.207.029c-.852.12-1.657.234-2.267.61-.466.286-.854.882-.69 1.312.095.252.381.509.691.771 6.644 5.637 15.085 8.993 24.412 9.708 2.358.181 4.88-.071 7.295-.729 2.515-.685 4.747-1.774 6.455-3.151.419-.339 1.025-.276 1.376.127.571-.535 1.081-1.115 1.525-1.736m49.725 3.347c0-1.726-1.412-3.131-3.147-3.131h-4.512c.097.111.206.214.337.298l6.883 4.401c.272-.463.439-.994.439-1.568" class="B"/><path d="M254.318 92.602c0-2.623-2.146-4.757-4.782-4.757h-4.732c-.092.197-.149.411-.149.641 0 .374.135.715.37.985h4.511c1.736 0 3.147 1.405 3.147 3.131 0 .574-.167 1.105-.439 1.568l1.372.877c.436-.716.702-1.548.702-2.445" class="D"/><path d="m304.302 197.503h-1.907-4.567-1.906-4.528-1.906-4.192 1.749 23.982-3.064z" class="B"/><path d="M308.234 163.678v22.714c0 1.923 1.149 3.574 2.792 4.327v-4.006c-.397-.46-.647-1.052-.647-1.706v-19.879a2.6 2.6 0 0 1 .647-1.705v-4.071c-1.643.753-2.792 2.403-2.792 4.326m-19.805-98.592v10.761h-1.906V64.482a10.5 10.5 0 0 1-1.227-.554v11.919h-2.023c.023.086.043.174.043.264h6.965v-8.492a.953.953 0 1 1 1.906 0v8.492h2.305V66.013c-2.185-.16-4.281-.466-6.063-.927m14.92 86.304c-.527 0-.954-.426-.954-.953v-12.378c0-.527.427-.953.954-.953a.95.95 0 0 1 .953.953v12.378a.95.95 0 0 1-.953.953zm-6.474 14.286c-.526 0-.953-.427-.953-.953v-26.664c0-.527.427-.953.953-.953a.95.95 0 0 1 .953.953v26.664c0 .526-.426.953-.953.953zm4.855-28.157c-.267 0-.266-.413 0-.413s.266.413 0 .413zm6.504 6.729a.953.953 0 1 1-1.906 0v-6.189a.953.953 0 1 1 1.906 0zm-22.938-8.233v61.488h4.192v-52.348a.953.953 0 1 1 1.906 0v52.348h4.528v-25.836c0-.527.427-.953.953-.953a.95.95 0 0 1 .953.953v25.836h4.567v-15.67c0-.527.427-.953.954-.953a.95.95 0 0 1 .953.953v15.67h3.661c.806-.931 1.861-1.64 3.064-2.013v-2.724c-2.719-.843-4.699-3.381-4.699-6.374v-22.714c0-2.992 1.98-5.531 4.699-6.374V154.5c-3.85.898-6.725 4.346-6.725 8.457v13.071a.95.95 0 0 1-.953.953c-.527 0-.954-.426-.954-.953v-13.071c0-5.17 3.725-9.482 8.632-10.408v-6.628c-.524-1.088-.826-2.302-.826-3.589v-4.273a.94.94 0 0 1 .826-.927v-1.117z" class="D"/><path d="M300.829 111.002h1.906v-9.878h-1.906zm7.773-9.878h-1.906c.286 3.603 1.569 6.996 3.704 9.878h.626v-2.481a17.21 17.21 0 0 1-2.424-7.397m-1.983-29.691v4.415h1.907v-4.415-6.516a23.7 23.7 0 0 1-1.701.426c-.07.014-.137.001-.206.001zm-20.16 33.198c-.527 0-.953.426-.953.954a.95.95 0 0 0 .953.953c1.401 0 2.542 1.139 2.542 2.541v1.924h1.906v-1.924c0-2.452-1.995-4.448-4.448-4.448m6.673.477v4.131a.953.953 0 1 0 1.906 0v-4.131a6.48 6.48 0 0 0-1.586-4.248h-2.965c-.035.014-.07.025-.105.038a4.61 4.61 0 0 1 2.75 4.21m-6.881-3.984h-.956v.705c.283-.279.609-.506.956-.705m8.294-25.277h1.853v-9.732a49.95 49.95 0 0 1-1.907-.102v10.098h.078c-.016-.063-.039-.123-.039-.191 0-.026.013-.048.015-.073m-2.358-8.228c0-.527-.427-.953-.954-.953a.95.95 0 0 0-.953.953v8.492h1.907zm-5.664 8.227h1.906v-10.76a17.07 17.07 0 0 1-1.906-.604zm14.307-1.766c0 .527.426.954.953.954s.953-.427.953-.954v-9.356l2.905-.269c-.046-.499.272-.964.773-1.07 3.52-.74 4.613-1.738 4.613-2.018 0-.807-4.509-2.781-12.866-2.781s-12.865 1.974-12.865 2.781 4.508 2.782 12.865 2.782c.52 0 .933.401.982.909l1.687-.157zm-9.436 71.075a.953.953 0 1 0-1.906 0v52.348h1.906zm6.435 26.513c0-.527-.426-.954-.953-.954s-.953.427-.953.954v25.835h1.906zm0-33.608c0-.527-.426-.954-.953-.954s-.953.427-.953.954v26.663a.953.953 0 1 0 1.906 0zm4.567 24.898v13.07c0 .527.427.953.954.953a.95.95 0 0 0 .953-.953v-13.07c0-4.112 2.875-7.559 6.724-8.458v-1.951c-4.906.927-8.631 5.239-8.631 10.409m1.907 18.875a.95.95 0 0 0-.953-.953c-.527 0-.954.426-.954.953v15.67h1.907zm2.025-18.155v22.714c0 2.993 1.98 5.531 4.699 6.374v-2.047c-1.643-.753-2.793-2.404-2.793-4.327v-22.714c0-1.923 1.15-3.573 2.793-4.326v-2.049c-2.719.844-4.699 3.383-4.699 6.375m1.635 33.825h3.064v-2.013c-1.203.373-2.258 1.082-3.064 2.013m2.416-12.496c0 .654.25 1.246.647 1.706v-23.29c-.397.46-.647 1.052-.647 1.706zm-6.077-46.947c0-.527-.426-.954-.953-.954s-.954.427-.954.954v12.377c0 .527.427.954.954.954s.953-.427.953-.954zm3.932 0c0-.527-.426-.954-.953-.954s-.953.427-.953.954v6.188c0 .527.426.954.953.954s.953-.427.953-.954zm1.966 0v4.272a8.25 8.25 0 0 0 .826 3.59v-8.79c-.464.065-.826.446-.826.928" class="B"/><path d="M301.729 137.106c-.266 0-.267.414 0 .414s.267-.414 0-.414" fill="#d5dbed"/><path d="M337.451 113.51c-.25-.159-.538-.244-.835-.244h-2.822l11.582 7.406a3.51 3.51 0 0 1 0 5.938l-11.583 7.405h2.823c.296 0 .585-.084.835-.244l13.837-8.846a1.5 1.5 0 0 0 .705-1.284 1.5 1.5 0 0 0-.705-1.284zm-56.628-34.338h23.121c.451 0 .817.363.817.813s-.366.813-.817.813h-23.121c-.452 0-.817-.364-.817-.813s.365-.813.817-.813zm-18.724 8.673h3.285c.057 0 .11.015.168.016s.109-.016.167-.016h3.284c2.636 0 4.782 2.134 4.782 4.757s-2.146 4.757-4.782 4.757h-3.284c-.058 0-.111-.015-.167-.017s-.111.017-.168.017h-3.285c-2.636 0-4.782-2.135-4.782-4.757s2.146-4.757 4.782-4.757zm14.918 0h2.96c.452 0 .818.364.818.813s-.366.813-.818.813h-2.96c-.452 0-.818-.364-.818-.813s.366-.813.818-.813zm-10.629-9.734h-6.354c-.297 0-.586.084-.836.244l-1.277.817h14.191c.452 0 .817.363.817.813s-.365.813-.817.813h-16.735l-10.015 6.403c-.254.163-.438.387-.558.644h4.732c2.637 0 4.783 2.134 4.783 4.757a4.68 4.68 0 0 1-.703 2.445l5.582 3.569a1.55 1.55 0 0 0 .836.244h6.354 8.295a14.89 14.89 0 0 0 4.132-2.892c3.123-3.104 7.275-4.815 11.689-4.815h16.35.78 28.803v-5.748h-82.889c-.453 0-.818-.363-.818-.813s.365-.813.818-.813h82.889v-4.141c0-.842-.692-1.527-1.542-1.527zm41.245 14.668h-.779c-3.979 0-7.721 1.542-10.534 4.339-.65.647-1.355 1.218-2.088 1.742h40.663c.85 0 1.541-.686 1.541-1.528v-.213h-29.985c-.452 0-.817-.363-.817-.813s.365-.813.817-.813h29.985v-2.714zm-45.534 2.953h.046c-.743-.839-1.21-1.927-1.21-3.131s.467-2.292 1.21-3.131h-.046c-1.736 0-3.147 1.405-3.147 3.131s1.411 3.131 3.147 3.131m3.452-.017c1.656-.088 2.981-1.445 2.981-3.114s-1.325-3.025-2.981-3.114c-1.657.089-2.981 1.445-2.981 3.114s1.324 3.026 2.981 3.114m3.452.017c1.736 0 3.147-1.405 3.147-3.131s-1.411-3.131-3.147-3.131h-.046c.743.839 1.21 1.928 1.21 3.131s-.467 2.292-1.21 3.131zm30.709-2.953h-9.208c-3.979 0-7.719 1.542-10.533 4.339a16.26 16.26 0 0 1-2.08 1.742h13.142a14.89 14.89 0 0 0 4.132-2.892c1.343-1.335 2.884-2.395 4.547-3.189" class="B"/><path d="M307.633 91.153h-.779-16.35c-4.415 0-8.566 1.71-11.69 4.815-1.219 1.213-2.619 2.174-4.131 2.892h3.207a16.26 16.26 0 0 0 2.08-1.742 14.84 14.84 0 0 1 10.534-4.339h9.207c-1.662.794-3.203 1.854-4.547 3.189a14.89 14.89 0 0 1-4.132 2.892h3.2c.733-.524 1.438-1.095 2.088-1.742a14.84 14.84 0 0 1 10.534-4.339h.779 28.803v-1.626zm-54.086-7.374c-.452 0-.818.364-.818.813s.366.813.818.813h82.889v-1.626zm8.552 5.691h.046c-.743.839-1.21 1.927-1.21 3.131s.467 2.292 1.21 3.131h-.046c-1.736 0-3.147-1.405-3.147-3.131s1.411-3.131 3.147-3.131m3.452.017c1.656.088 2.981 1.445 2.981 3.114s-1.325 3.025-2.981 3.114c-1.657-.089-2.981-1.445-2.981-3.114s1.324-3.026 2.981-3.114m3.405-.017h.047c1.736 0 3.147 1.405 3.147 3.131s-1.411 3.131-3.147 3.131h-.047c.744-.839 1.211-1.928 1.211-3.131s-.467-2.292-1.211-3.131m-6.857 7.888h3.284c.058 0 .111-.015.168-.017s.11.017.168.017h3.284c2.636 0 4.782-2.135 4.782-4.757s-2.146-4.757-4.782-4.757h-3.284c-.058 0-.111.015-.168.017s-.11-.017-.168-.017h-3.284c-2.636 0-4.782 2.134-4.782 4.757s2.146 4.757 4.782 4.757m18.724-16.561h23.121c.451 0 .817-.364.817-.813s-.366-.813-.817-.813h-23.121c-.452 0-.817.363-.817.813s.365.813.817.813m-8.711 0c.452 0 .817-.364.817-.813s-.365-.813-.817-.813h-14.191l-2.544 1.626zm41.036-4.951h-2.122v-11.91c-.668.364-1.496.693-2.5.981v10.93h-1.906V65.344c-.462-.002-.88-.304-.979-.775-.008-.039.003-.076-.001-.115l-2.904.27v9.356c0 .527-.426.954-.953.954s-.953-.427-.953-.954v-9.179l-1.688.157c.003.031.019.059.019.091a1 1 0 0 1-1 1c-.586 0-1.175-.014-1.763-.034v9.732h-1.853c-.002.025-.014.047-.014.073 0 .068.023.128.039.191h18.65a1.39 1.39 0 0 1-.072-.264m-12.318 35.155h1.906v-9.878h-1.906zm-9.922 0h-1.907v-1.923c0-1.403-1.14-2.542-2.541-2.542a.95.95 0 0 1-.953-.953c0-.527.426-.954.953-.954 2.453 0 4.448 1.997 4.448 4.449zm20.118-2.481v-7.397h.586c.012-.089.034-.177.063-.264h-18.222c.985 1.142 1.586 2.624 1.586 4.247v4.132a.953.953 0 1 1-1.906 0v-4.132a4.61 4.61 0 0 0-2.751-4.209l.106-.038h-7.697c.032.085.055.173.069.264h3.391a4.6 4.6 0 0 0-.956.704v9.174h-1.214c.022.087.036.175.041.264h27.264a1.48 1.48 0 0 1 .041-.264H310.4a19.07 19.07 0 0 1-3.704-9.878h1.906c.234 2.644 1.071 5.155 2.424 7.397zm-4.574-13.028c-.452 0-.817.364-.817.813s.365.813.817.813h29.985v-1.626zm-29.435-6.022h2.96c.452 0 .818-.364.818-.813s-.366-.813-.818-.813h-2.96c-.452 0-.817.364-.817.813s.365.813.817.813" class="D"/><path d="M286.313 117.981c-.452 0-.817-.364-.817-.813s.365-.813.817-.813h17.551c.451 0 .817.363.817.813s-.366.813-.817.813zm32.958 2.439c.453 0 .818.364.818.813s-.365.813-.818.813h-23.12c-.452 0-.817-.363-.817-.813s.365-.813.817-.813zm-23.965 8.673c.451 0 .817.364.817.813s-.366.813-.817.813h-2.961c-.451 0-.817-.363-.817-.813s.366-.813.817-.813zm-30.441 0c2.636 0 4.782 2.135 4.782 4.757 0 .057-.015.109-.017.165h3.032c-.002-.056-.016-.108-.016-.165 0-2.622 2.146-4.757 4.781-4.757h3.285c.057 0 .111.015.167.017s.111-.017.168-.017h3.285c2.636 0 4.781 2.135 4.781 4.757 0 .057-.014.109-.016.165h9.62a16.53 16.53 0 0 1 7.116-1.613h16.349.779 9.643l8.989-5.748h-72.717c-.452 0-.818-.364-.818-.813s.366-.813.818-.813h75.261l.161-.104c.449-.287.706-.755.706-1.283a1.5 1.5 0 0 0-.706-1.285l-6.843-4.375h-26.778c-.452 0-.818-.364-.818-.813s.366-.813.818-.813h24.234l-4.45-2.845a1.55 1.55 0 0 0-.835-.244h-67.873-6.988c-.85 0-1.542.686-1.542 1.528v1.561h27.483c.451 0 .817.363.817.813s-.366.813-.817.813h-27.483v2.439h34.217c.452 0 .818.364.818.813s-.366.813-.818.813h-34.217v2.982h9.884c.452 0 .817.364.817.813s-.365.813-.817.813h-9.884v2.439zm-10.1 4.922h6.989 6.241c.003-.056.017-.108.017-.165 0-1.726-1.412-3.131-3.147-3.131h-11.642v1.768c0 .842.692 1.528 1.542 1.528m22.709-3.296h-.047c-1.735 0-3.147 1.405-3.147 3.131 0 .057.014.109.017.165h1.982c-.002-.056-.015-.109-.015-.165 0-1.204.466-2.292 1.21-3.131m6.857 0h-.047c.744.839 1.211 1.927 1.211 3.131 0 .056-.014.109-.016.165h1.982c.003-.056.017-.108.017-.165 0-1.726-1.412-3.131-3.147-3.131m-3.452.017c-1.656.089-2.981 1.445-2.981 3.114 0 .056.013.11.016.165h5.93l.016-.165c0-1.669-1.325-3.025-2.981-3.114" class="B"/><path d="M311.867 136.015l-.343.264h1.503 1.28l.443-.264zm11.095-3.613h-.779-16.35c-2.506 0-4.919.569-7.116 1.613h30.909c.297 0 .586-.084.836-.244l2.142-1.369zm-58.097-1.683c1.735 0 3.147 1.405 3.147 3.131 0 .057-.014.109-.017.165h1.635c.002-.056.017-.108.017-.165 0-2.623-2.146-4.757-4.782-4.757h-11.642v1.626zm-1.758-4.065c.452 0 .817-.364.817-.813s-.365-.813-.817-.813h-9.884v1.626zm5.769-1.626c-.452 0-.817.364-.817.813s.365.813.817.813h72.718l2.543-1.626zm14.419 11.251h1.507c.052-.083.087-.177.133-.264h-1.962c-.094.097-.2.181-.305.264zm1.037-7.186h-3.285c-.057 0-.11.015-.167.017s-.111-.017-.168-.017h-3.284c-2.636 0-4.782 2.135-4.782 4.757 0 .057.015.109.017.165h1.635c-.004-.055-.017-.108-.017-.165 0-1.726 1.411-3.131 3.147-3.131h.047c-.745.839-1.211 1.928-1.211 3.131 0 .056.014.109.016.165h1.635c-.003-.055-.016-.109-.016-.165 0-1.669 1.325-3.025 2.981-3.114 1.656.089 2.981 1.445 2.981 3.114 0 .056-.013.11-.016.165h1.635c.002-.056.016-.109.016-.165 0-1.203-.467-2.292-1.211-3.131h.047c1.735 0 3.147 1.405 3.147 3.131 0 .057-.014.11-.017.165h1.635c.002-.056.017-.108.017-.165 0-2.622-2.146-4.757-4.782-4.757m11.82-8.673c-.452 0-.818.364-.818.813s.366.813.818.813h23.12c.452 0 .817-.363.817-.813s-.365-.813-.817-.813zm-8.711 1.626c.452 0 .817-.363.817-.813s-.365-.813-.817-.813h-34.217v1.626zm-6.735-4.065c.452 0 .817-.364.817-.813s-.365-.813-.817-.813h-27.482v1.626zm23.158 0c.452 0 .817-.364.817-.813s-.365-.813-.817-.813h-17.551c-.452 0-.817.363-.817.813s.365.813.817.813zm6.813-1.626c-.452 0-.817.364-.817.813s.365.813.817.813h26.778l-2.544-1.626zm-19.149 13.552c0 .449.366.813.817.813h2.961c.451 0 .817-.364.817-.813s-.366-.813-.817-.813h-2.961c-.451 0-.817.363-.817.813m49.268-30.55h-3V77.11h3a3 3 0 0 1 3 3v16.246a3 3 0 0 1-3 3" class="D"/><g fill="#202225"><path d="M107.324 54.547l.778 3.27a1 1 0 0 0 .972.768 1.02 1.02 0 0 0 .231-.027h.001a1 1 0 0 0 .741-1.204l-.778-3.27c-.127-.537-.667-.872-1.204-.741a1 1 0 0 0-.741 1.204m248.883 142.956l-17.717-.041a4.79 4.79 0 0 1 4.782-4.782h8.194a4.79 4.79 0 0 1 4.782 4.782c0 .022-.019.041-.041.041zm-19.716-.029l-6.7-.028v-1.14c0-3.022 2.458-5.48 5.479-5.48h3.171a5.46 5.46 0 0 1 2.115.426c-2.391 1.05-4.066 3.437-4.066 6.21zm-21.438.029c-1.12 0-2.027-.907-2.027-2.027v-35.337l8.889 37.364zm-4.027-3a3 3 0 0 1-3 3h-19.731a3 3 0 0 1-3-3v-54.486a2 2 0 0 1 2-2h21.731a2 2 0 0 1 2 2zm-33.111-60.488h-1.636-1.982-1.635-3.032-1.635-6.242-6.988c-.85 0-1.542-.685-1.542-1.528v-1.768-1.626-2.439-1.626-2.982-1.626-2.439-1.626-1.561c0-.842.692-1.528 1.542-1.528h6.988 67.872a1.55 1.55 0 0 1 .836.244l4.45 2.845 2.544 1.626 6.843 4.376c.449.287.706.754.706 1.284s-.257.996-.706 1.283l-.161.104-2.544 1.626-8.99 5.748-2.141 1.369c-.251.16-.54.244-.837.244h-30.908-9.62-1.635-1.983-1.635zm5.38 61.461a2.03 2.03 0 0 1-2.367 2c-.997-.162-1.687-1.099-1.687-2.109v-1.203a1 1 0 1 0-2 0v1.312c0 1.12-.908 2.027-2.027 2.027h-23.632v-.977a6.83 6.83 0 0 0-6.828-6.827h-1.692l12.772-53.684h22.461a5 5 0 0 1 5 5zm-33.713 2.027l-12.507.05v-1.027c0-2.662 2.165-4.827 4.826-4.827h2.853c2.662 0 4.828 2.165 4.828 4.827zm14.461-96.643h2.344 13.908a3 3 0 0 1 3 3v7.406h-21.542-.014zm46.983 4v6.406h-25.731v-6.406a4 4 0 0 1 4-4h17.731a4 4 0 0 1 4 4zm-50.992-6c-.297 0-.586-.085-.836-.244l-5.582-3.569-1.372-.877-6.883-4.401c-.131-.084-.24-.187-.337-.298-.234-.271-.369-.611-.369-.986 0-.229.057-.443.149-.64.119-.257.303-.481.557-.644l10.015-6.403 2.544-1.626 1.278-.817a1.54 1.54 0 0 1 .836-.244h6.353 68.508c.85 0 1.541.685 1.541 1.527v4.141 1.626 5.748 1.626 2.714 1.627.212c0 .842-.691 1.528-1.541 1.528h-40.663-3.2-13.142-3.207-8.296zm10.639-25.212l9.914-41.673c.245-1.025 1.703-1.025 1.946 0l6.096 25.622c-3.132.779-5.334 2.017-5.334 3.77v11.744a3 3 0 0 1-3 3h-7.676a2 2 0 0 1-1.946-2.463zm27.487-15.062c8.358 0 12.866 1.974 12.866 2.781 0 .28-1.093 1.278-4.612 2.018-.502.105-.82.571-.774 1.069.003.039-.008.076.001.115.099.471.516.773.978.774.069 0 .136.014.206-.001.617-.13 1.174-.274 1.701-.425 1.004-.289 1.831-.617 2.5-.981v8.173a2 2 0 0 1-2 2h-21.731a2 2 0 0 1-2-2v-8.181c.364.2.784.381 1.227.554.579.224 1.217.426 1.906.604 1.782.461 3.879.767 6.063.927.632.046 1.268.08 1.907.101.588.021 1.177.035 1.762.035a1 1 0 0 0 1-1c0-.033-.016-.06-.018-.091-.049-.508-.462-.909-.982-.909-8.357 0-12.865-1.975-12.865-2.782s4.508-2.781 12.865-2.781zm39.912 19.525h3.176c.85 0 1.542.685 1.542 1.527v17.694c0 .842-.692 1.528-1.542 1.528h-3.176c.226-.464.364-.978.364-1.528V79.638c0-.549-.138-1.063-.364-1.527zm-1.457 35.155a1.55 1.55 0 0 1 .835.244l13.837 8.847a1.5 1.5 0 0 1 .706 1.284 1.5 1.5 0 0 1-.706 1.283l-13.837 8.847a1.54 1.54 0 0 1-.835.244h-2.823l11.583-7.406c1.02-.651 1.629-1.761 1.629-2.968a3.51 3.51 0 0 0-1.629-2.969l-11.582-7.406zm-140.437 84.237h-.13a2 2 0 0 1-1.88-2.682l.542-1.494a1 1 0 0 0-.599-1.281c-.517-.185-1.092.081-1.281.6l-1.283 3.539a2 2 0 0 1-1.881 1.318h-2.726c.36-.69.583-1.462.583-2.293v-9.43c0-.724.388-1.4 1.027-1.74a12.85 12.85 0 0 0 5.526-5.773l.049-.103c.118-.25.228-.503.33-.761.026-.067.048-.135.074-.203a12.62 12.62 0 0 0 .369-1.16c.047-.176.097-.35.136-.528.036-.163.064-.327.093-.491.043-.232.078-.464.107-.699l.047-.406c.034-.379.058-.761.058-1.146v-14.796a4 4 0 0 1 4-4h5.767c2.264 0 4.426-.418 6.441-1.148l-9.532 40.066a6 6 0 0 1-5.837 4.611zm-10.655-13.676v11.383a3 3 0 0 1-3 3h-2.579a3 3 0 0 1-3-3v-9.686a2 2 0 0 0-2-2h-11.917a2 2 0 0 0-2 2v9.686a3 3 0 0 1-3 3h-2.58a3 3 0 0 1-3-3v-10.686c0-.566-.468-.996-1.034-1-2.674-.018-4.843-2.199-4.843-4.877v-14.106a1 1 0 1 0-2 0v14.106c0 1.906.782 3.63 2.038 4.877h-45.485a3 3 0 0 0-3 3v8.686a3 3 0 0 1-3 3h-2.58a3 3 0 0 1-3-3v-49.363c0-9.185 7.447-16.632 16.633-16.632h6.528c.884 0 1.703.408 2.291 1.068a9.99 9.99 0 0 0 6.42 3.302v1.389c0 10.494 8.506 19 19 19h5.155 45.769a2 2 0 0 1 2 2v16.796c0 4.503-2.862 8.56-7.124 10.105a1.02 1.02 0 0 0-.692.952zm-23.079 13.676c.36-.69.583-1.462.583-2.293v-7.686a2 2 0 0 1 2-2h7.917a2 2 0 0 1 2 2v7.686c0 .831.223 1.603.583 2.293zm-19.968-3.843l-1.935-8.136h7.906a2 2 0 0 1 2 2v7.686c0 .831.223 1.603.583 2.293h-3.69a5 5 0 0 1-4.864-3.843zm-11.081 3.843c.359-.69.583-1.462.583-2.293v-7.686a2 2 0 0 1 2-2h4.507l2.85 11.979zm-1.417-2.293a3 3 0 0 1-3 3h-2.58a3 3 0 0 1-3-3v-8.686a1 1 0 0 1 1-1h6.58a1 1 0 0 1 1 1zm-30.438 2.293c.36-.69.583-1.462.583-2.293v-6.686a3 3 0 0 1 3-3h14.275a2 2 0 0 1 2 2v7.686c0 .831.223 1.603.583 2.293zm14.923-88.262a8 8 0 0 1 8-8h14.6a1 1 0 1 0 0-2h-4.54-6.568a2.01 2.01 0 0 1-1.935-2.534c1.965-7.213 8.567-12.533 16.395-12.533h4.152 14.616c.011.266.049.535.151.801.264.697.771 1.166 1.267 1.587 6.967 5.91 15.803 9.429 25.553 10.176a21.57 21.57 0 0 0 1.656.062c2.086 0 4.24-.29 6.317-.855 2.779-.757 5.264-1.975 7.185-3.524a1 1 0 0 0 .15-1.406c-.008-.01-.021-.014-.029-.024-.351-.404-.957-.466-1.376-.127-1.708 1.377-3.94 2.466-6.455 3.151-2.415.658-4.937.91-7.295.729-9.327-.715-17.768-4.071-24.412-9.708-.31-.262-.596-.519-.691-.771-.164-.43.224-1.026.69-1.312.61-.376 1.415-.49 2.267-.61l.207-.029a39.68 39.68 0 0 0 3.669-.704c3.528-.85 6.917-2.173 10.074-3.934a76.58 76.58 0 0 0 2.79-1.658c1.744-1.069 3.391-2.079 5.186-2.841 3.339-1.419 7.385-1.368 10.822.135l.069.031c2.994 1.32 2.986 5.539.009 6.898-3.077 1.405-6.403 2.403-9.894 2.945a1 1 0 0 0 .152 1.988c.051 0 .103-.004.155-.011 5.683-.883 10.956-2.92 15.494-5.911l.022.007c1.271 3.242 1.177 6.16-.278 8.667-.268.46-.118 1.039.32 1.329.016.011.025.028.042.038a1 1 0 0 0 1.367-.363 10.54 10.54 0 0 0 .719-1.497c.768-1.99 2.853-3.138 4.896-2.525 7.004 2.097 12.124 8.588 12.124 16.266v1.6a2 2 0 0 1-2 2h-14.952a1 1 0 1 0 0 2H223.6a6.2 6.2 0 0 1 6.2 6.2v7.8c0 9.389-7.612 17-17 17h-16.647-2.553c-9.389 0-17-7.611-17-17v-7.8a6.2 6.2 0 0 1 6.2-6.2h4.765 6.035a1 1 0 1 0 0-2h-10.8a8.2 8.2 0 0 0-8.2 8.2v7.8c0 10.494 8.506 19 19 19h19.2a18.88 18.88 0 0 0 7.303-1.462c.792-.332 1.595.377 1.365 1.204-1.991 7.174-8.563 12.458-16.362 12.458h-60.538-4.153a16.96 16.96 0 0 1-12.745-5.748c-3.994-4.521-1.229-11.701 4.739-12.584l.006-.001h4.648a1 1 0 1 0 0-2h-14.6a8 8 0 0 1-8-8zm-50.962 88.262h-.225v-7-10-5.98-13.201c.144.045.284.099.431.138.817.214 1.646.317 2.469.317h.07c2.92-.021 5.14 2.583 4.464 5.424zm-4.356-42.133c-1.003-2.06-1.057-4.449-.148-6.552a7.89 7.89 0 0 1 7.21-4.735c.124 0 .249.003.373.009l12.907.623h.001c.407.019.589.306.649.428a.75.75 0 0 1-.063.775l-7.465 10.548a7.89 7.89 0 0 1-8.395 3.059 7.84 7.84 0 0 1-5.069-4.155zm-14.666 42.133H36.63a2 2 0 0 1-1.945-2.463l4.897-20.583c.244-1.025 1.702-1.025 1.945 0l4.898 20.583a2 2 0 0 1-1.946 2.463zm-.722-70.103a1 1 0 0 0-1.413 1.415 65.12 65.12 0 0 1 9.333 11.783c.43.696.313 1.601-.265 2.18l-.012.013c-6.492 6.491-17.056 6.492-23.548 0-5.387-5.387-7.336-23.838-7.866-30.341a.99.99 0 0 1 1.073-1.073c6.503.528 24.952 2.477 30.341 7.865 4.78 4.78 6.034 11.764 3.773 17.707-.528 1.391-2.41 1.59-3.244.356-2.376-3.518-5.103-6.836-8.172-9.905zM58.19 90.918c-.803 1.308-2.697 1.287-3.451-.051-2.947-5.234-6.618-10.103-10.982-14.467a1 1 0 0 0-1.413 1.415c3.413 3.413 6.39 7.144 8.913 11.122 2.346 3.698.117 8.564-4.216 9.201-5.027.738-10.327-.819-14.189-4.681-3.467-3.467-5.51-12.344-6.667-19.965-.912-6.003 4.273-11.158 10.276-10.246 7.615 1.157 16.642 3.04 19.939 6.663 7.657 8.418 4.357 16.831 1.79 21.009zm13.871-3.281c5.086-5.086 21.821-7.108 29.147-7.763 1.241-.111 2.276.924 2.165 2.166-.655 7.325-2.677 24.059-7.763 29.145a16.54 16.54 0 0 1-11.774 4.877c-2.915 0-5.712-.749-8.179-2.151-1.985-1.128-2.553-3.766-1.269-5.653a65.16 65.16 0 0 1 7.13-8.741c.38-.392.381-1.013-.005-1.399a1.01 1.01 0 0 0-1.431.007 67.27 67.27 0 0 0-5.447 6.363c-2.036 2.702-6.361 1.744-7.07-1.565-1.145-5.342.353-11.143 4.496-15.286zm282.829 78.425a55.08 55.08 0 0 0-5.228-6.303 1.01 1.01 0 0 0-1.433-.007v.001c-.385.385-.383 1.003-.005 1.396 1.664 1.726 3.656 4.969 5.039 7.395 1.121 1.964.395 4.477-1.613 5.52-5.071 2.635-11.482 1.827-15.732-2.423-3.983-3.983-5.655-16.835-6.248-23.107-.118-1.251.926-2.295 2.177-2.177 6.272.591 19.122 2.262 23.107 6.247 3.488 3.488 4.649 8.427 3.497 12.889-.42 1.627-2.587 1.938-3.561.569zm14.025-30.721c.075-4.159 1.695-8.294 4.863-11.462 5.085-5.085 21.814-7.107 29.141-7.762 1.244-.112 2.281.925 2.169 2.169-.654 7.327-2.675 24.054-7.762 29.142-5.012 5.011-12.445 6.149-18.561 3.423-2.913-1.299-3.928-4.921-2.076-7.518 1.895-2.658 4.004-5.189 6.318-7.573.381-.392.382-1.013-.005-1.399v-.001c-.395-.394-1.042-.393-1.43.007-1.336 1.377-2.604 2.802-3.803 4.271-3.001 3.673-8.939 1.445-8.854-3.297zm-.576 24.169c1.666-4.786 6.817-7.58 11.653-6.065 1.806.566 3.682.851 5.56.851 4.776 0 9.552-1.818 13.188-5.454 7.083-7.083 8.553-32.843 8.612-33.936a1 1 0 0 0-.291-.761c-.201-.202-.482-.305-.762-.292-1.092.059-26.853 1.53-33.935 8.612-5.792 5.792-6.959 14.47-3.52 21.436 1.333 2.702 1.499 5.829.216 8.555-4.114 8.745-6.293 18.357-6.293 28.309v1.488a53.93 53.93 0 0 0-3.896-9.676c-.481-.925-.457-2.016.051-2.927 3.284-5.883 2.44-13.465-2.554-18.46-5.851-5.851-27.022-7.059-27.92-7.108-.28-.013-.56.091-.761.292a1 1 0 0 0-.292.761c.049.898 1.258 22.069 7.109 27.92 3.014 3.014 6.973 4.521 10.932 4.521 2.852 0 5.703-.782 8.201-2.345 1.535-.961 3.562-.293 4.245 1.383 1.753 4.298 4.453 11.541 4.885 16.309v1.97a2.61 2.61 0 0 1-2.61 2.61h-1.913c0-.014.004-.027.004-.041a6.79 6.79 0 0 0-6.782-6.782h-8.113c-1.315-1.151-3.031-1.854-4.912-1.854h-3.171a7.48 7.48 0 0 0-7.479 7.479v1.141c0 .02.005.037.006.057h-.003a4.84 4.84 0 0 1-4.708-3.72l-8.702-36.577a49.95 49.95 0 0 1-1.358-11.573v-4.618a5 5 0 0 1 5-5h18.589a3.55 3.55 0 0 0 1.912-.559l13.735-8.781c.795-.507 1.418-1.28 1.632-2.198.355-1.514-.277-3.005-1.53-3.805l-13.836-8.847a3.55 3.55 0 0 0-1.912-.559h-5.93c.023.011-.197.023-.563.035-.165-.023-.331-.035-.498-.035h-16.599v-7.406a3 3 0 0 1 3-3h18.869c.026 0 .051-.005.078-.006l1.031.006h5.244c1.948 0 3.542-1.594 3.542-3.542v-17.68a3.53 3.53 0 0 0-3.528-3.527h-5.257l-1.025.006c-.028-.001-.056-.006-.085-.006h-18.869a3 3 0 0 1-3-3V61.367c0-3.285-7.706-4.781-14.866-4.781-.862 0-1.732.021-2.595.066-2.906.149-5.52-1.745-6.194-4.576l-6.838-28.741a1 1 0 0 0-1.945 0l-11.644 48.941c-.431 1.814-1.815 3.31-3.634 3.715-2.654.59-5.161-1.058-5.767-3.566l-13.562-56.154a1 1 0 0 0-1.945 0l-17.632 74.108a1 1 0 1 0 1.946.463l13.74-57.753c.732-3.073 5.106-3.073 5.837 0l10.344 43.479-.117.083c-.01.007-.023.012-.033.019l-13.734 8.78c-.794.508-1.417 1.279-1.633 2.197a3.52 3.52 0 0 0 1.53 3.807l13.837 8.847c.017.011.036.016.051.032.411.423 1.056.526 1.646.526l2.17.001-1.61 7.271a4 4 0 0 1-3.905 3.135h-1.708c-.677 0-1.303.2-1.841.529-1.016.621-1.701 1.728-1.701 2.999v17.693c0 1.616 1.101 2.966 2.59 3.383l-12.822 53.898c-3.334.447-5.916 3.303-5.916 6.758v.977h-32.102l10.867-45.673c5.788-3.012 9.824-8.912 10.211-15.781 4.689-3.463 7.749-9.012 7.749-15.275v-7.8c0-4.35-3.409-7.91-7.694-8.174v-.44-3.186c0-9.379-6.836-17.175-15.785-18.706-1.457-.249-2.692-1.272-3.112-2.69-.075-.256-.16-.514-.252-.773-.114-.315-.25-.619-.388-.922a35.12 35.12 0 0 0 6.264-5.964 1 1 0 1 0-1.55-1.265 32.5 32.5 0 0 1-2.469 2.698c-1.489 1.455-3.87 1.629-5.432.252-1.061-.936-2.294-1.721-3.672-2.324-3.931-1.72-8.569-1.774-12.405-.144-1.931.82-3.72 1.917-5.449 2.977l-2.719 1.616c-2.998 1.673-6.218 2.93-9.569 3.737a37.34 37.34 0 0 1-3.484.668l-.203.029c-.97.137-2.07.292-3.036.887-.372.229-.713.551-.994.924h-19.436a19.03 19.03 0 0 0-18.905 17.115c-.488.047-.962.136-1.427.25l-8.237-34.622a1 1 0 1 0-1.946.462l8.288 34.835c-3.378 1.607-5.725 5.043-5.725 9.027v14.4a10.02 10.02 0 0 0 .011.46c.081 1.7-1.288 3.114-2.991 3.114h-3.307c-10.291 0-18.633 8.342-18.633 18.632v49.363c0 .831.224 1.603.583 2.293H65.557l9.697-40.761c.131-.548.365-1.066.691-1.527l5.681-8.028c.461-.652.697-1.465.537-2.247-.261-1.278-1.34-2.163-2.579-2.223l-1.998-.097-10.909-.526c-.371-.017-.74-.013-1.104.012-1.215.083-2.204-.939-2.12-2.154.658-9.481 3.357-18.557 7.889-26.723 1.791 1.623 3.843 2.863 6.058 3.679 2.795 1.028 4.309 4.065 3.62 6.963l-2.438 10.247a1 1 0 0 0 .741 1.204.97.97 0 0 0 .232.028 1 1 0 0 0 .972-.769l3.937-16.55c4.745-.156 9.187-2.058 12.56-5.432 7.082-7.082 8.553-32.843 8.612-33.935.015-.284-.091-.561-.291-.762s-.476-.31-.762-.291c-.447.024-5.022.285-10.756 1.069l8.646-36.341c.244-1.024 1.702-1.024 1.945 0l1.248 5.24a1 1 0 0 0 1.203.741h.001a1 1 0 0 0 .741-1.204l-3.193-13.417a1 1 0 0 0-1.945 0l-9.265 38.942c-.893 3.755-3.87 6.655-7.646 7.461-6.115 1.306-12.046 3.253-14.915 6.121-6.999 7-7.241 18.212-.766 25.528-2.929 5.168-5.159 10.691-6.605 16.461v-4.689c0-7.417-3.101-19.926-4.631-25.641a6.01 6.01 0 0 1 .991-5.126c5.388-7.294 4.781-17.657-1.822-24.261-7.083-7.082-32.843-8.553-33.936-8.612a.99.99 0 0 0-.761.291c-.201.201-.307.478-.292.762.059 1.092 1.53 26.853 8.612 33.935 3.637 3.636 8.412 5.454 13.188 5.454 2.256 0 4.509-.413 6.642-1.23 2.562-.982 5.462.401 6.371 2.99 2.388 6.797 3.638 14.02 3.638 21.438v18.82a1.96 1.96 0 0 1-.806 1.598c-.409.292-.797.616-1.159.967-.984.958-2.587.731-3.209-.495l-.498-.959c-.493-.933-.479-2.047.059-2.955 4.229-7.151 3.29-16.532-2.849-22.671-7.083-7.082-32.843-8.553-33.936-8.612-.283-.012-.56.09-.761.291s-.307.478-.292.762c.059 1.092 1.53 26.853 8.612 33.936 3.637 3.636 8.412 5.454 13.188 5.454s9.553-1.819 13.189-5.454c.207-.208.388-.431.584-.646a63.79 63.79 0 0 1 2.911 6.044c.142.339.173.71.126 1.073-.243 1.887.061 3.822.913 5.57.52 1.069 1.229 2.011 2.069 2.811 1.223 5.002 1.859 10.185 1.859 15.466v5.98 10 7h-.522a2 2 0 0 1-1.967-1.644l-.554-3.051a1 1 0 0 0-1.162-.806 1 1 0 0 0-.805 1.163l.358 1.982a2 2 0 0 1-1.967 2.356h-2.431c-1.852 0-3.462-1.272-3.892-3.074l-6.807-28.613a1 1 0 0 0-1.945 0l-6.808 28.613a4 4 0 0 1-3.891 3.074h-3.091a1.21 1.21 0 0 1-1.209-1.21v-.467a1 1 0 1 0-2 0v.467a1.21 1.21 0 0 1-1.21 1.21 1.21 1.21 0 0 1-1.209-1.21v-3.307a1 1 0 1 0-2 0v3.307a1.21 1.21 0 0 1-1.21 1.21H.999a1 1 0 1 0 0 2h63.292H288.31h34.871 6.666 8.684 5.333 12.343 32.609a1 1 0 1 0 0-2h-12.267a1.23 1.23 0 0 1-1.196-1.503l.371-1.611a1 1 0 1 0-1.949-.449l-.602 2.611a1.23 1.23 0 0 1-1.196.952 1.23 1.23 0 0 1-1.228-1.228v-3.293a1 1 0 1 0-2 0v3.293a1.23 1.23 0 0 1-1.227 1.228h-.003a2.61 2.61 0 0 1-2.602-2.486 59.14 59.14 0 0 0-.15-2.157v-12.095c0-7.351 1.226-14.512 3.572-21.255zm26.64 37.993h-1.634a1 1 0 1 0 0 2h1.634a1 1 0 1 0 0-2"/><path d="M145.436 50.851c-.526-1.28 1.082-2.348 2.138-1.453 3.994 3.389 8.335 4.27 8.605 4.321.062.012.125.017.187.017a1 1 0 0 0 .187-1.982c-.066-.012-4.933-1.003-8.829-4.955-.663-.672-.435-1.835.446-2.174.047-.018.095-.036.143-.052.566-.198 1.195-.294 1.855-.294 1.338 0 2.804.397 4.128 1.152 2.23 1.272 3.62 3.212 5.092 5.266.626.874 1.274 1.777 2.002 2.65l.119.145c.391.474 1.307 1.585 2.124 2.346-3.978 1.211-8.588.941-12.981-.758-2.581-.999-4.469-2.51-5.181-4.146l-.035-.083m-2.46-9.817a1 1 0 0 0-.548 1.303c.494 1.211 1.085 2.293 1.735 3.267a7.82 7.82 0 0 0-.493.996c-.72 1.798-.732 3.524-.033 5.131 1.264 2.907 4.486 4.514 6.294 5.214 2.813 1.089 5.717 1.639 8.526 1.639 1.99 0 3.933-.276 5.759-.833.654-.199 1.149-.711 1.323-1.369a1.93 1.93 0 0 0-.468-1.831c-.755-.799-1.673-1.912-2.019-2.332l-.126-.152v-.001c-.681-.816-1.307-1.689-1.912-2.534-1.533-2.139-3.117-4.35-5.727-5.839-2.501-1.427-5.355-1.803-7.633-1.009a6.38 6.38 0 0 0-2.152 1.267 15.93 15.93 0 0 1-1.222-2.37c-.209-.511-.791-.759-1.304-.547m67.52-24.787c.011-.004.019-.013.029-.018.499-.196.761-.749.58-1.258-1.57-4.442-1.703-9.058-.461-12.985.821.824 1.904 1.772 2.366 2.177l.144.126c.851.753 1.735 1.427 2.589 2.078 2.01 1.532 3.909 2.979 5.115 5.247 1.068 2.008 1.329 4.31.681 6.006l-.009.023c-.366.949-1.587 1.165-2.288.429a18.14 18.14 0 0 1-3.324-4.924 1 1 0 1 0-1.818.835 20.4 20.4 0 0 0 3.232 4.995c.589.666.119 1.747-.768 1.684-.732-.053-1.422-.299-2.083-.739a.99.99 0 0 0-1.327.217c-.018.023-.044.036-.06.06a1 1 0 0 0 .277 1.387c1.078.718 2.262 1.08 3.504 1.079.813 0 1.651-.154 2.5-.466.36-.132.695-.293 1.017-.467a18.06 18.06 0 0 0 3.208 1.835 1 1 0 0 0 1.319-.509 1 1 0 0 0-.51-1.32c-.855-.378-1.613-.825-2.329-1.296.568-.603 1.02-1.306 1.327-2.11.861-2.253.569-5.116-.784-7.659-1.411-2.653-3.575-4.302-5.668-5.898-.826-.629-1.679-1.279-2.475-1.984l-.152-.134c-.409-.358-1.494-1.308-2.268-2.084a1.92 1.92 0 0 0-1.816-.521c-.663.154-1.189.633-1.408 1.281-1.471 4.362-1.335 9.442.384 14.304a1 1 0 0 0 1.276.609m-71.941 6.423h1.51v1.51a1 1 0 1 0 2 0v-1.51h1.51a1 1 0 1 0 0-2h-1.51v-1.51a1 1 0 1 0-2 0v1.51h-1.51a1 1 0 1 0 0 2m65.671 31.066h1.51v1.51a1 1 0 1 0 2 0v-1.51h1.51a1 1 0 1 0 0-2h-1.51v-1.51a1 1 0 1 0-2 0v1.51h-1.51a1 1 0 1 0 0 2m143.443-18.805h1.51v1.51a1 1 0 1 0 2 0v-1.51h1.51a1 1 0 1 0 0-2h-1.51v-1.51a1 1 0 1 0-2 0v1.51h-1.51a1 1 0 1 0 0 2m-164.784-8.567c.256 0 .512-.098.707-.293l1.183-1.184a1 1 0 0 0-1.414-1.414l-1.183 1.184a1 1 0 0 0 0 1.414c.195.195.451.293.707.293m-5.917 5.916c.256 0 .512-.098.707-.293l1.184-1.183a1 1 0 0 0-1.414-1.414l-1.184 1.183a1 1 0 0 0 0 1.414c.195.195.451.293.707.293m6.393-.293c.195.195.451.293.707.293s.512-.098.707-.293a1 1 0 0 0 0-1.414l-1.183-1.183a1 1 0 0 0-1.414 1.414zm-5.916-5.916c.195.195.451.293.707.293s.512-.098.707-.293a1 1 0 0 0 0-1.414l-1.184-1.184a1 1 0 0 0-1.414 1.414zm-15.645 94.37c2.475 0 4.5-2.025 4.5-4.5s-2.025-4.5-4.5-4.5-4.5 2.025-4.5 4.5 2.025 4.5 4.5 4.5"/></g></g></svg>