<svg xmlns="http://www.w3.org/2000/svg" viewBox="0 0 71.36 79.25" xmlns:v="https://vecta.io/nano"><g fill="#d8d9da"><path d="M45.01 15.64L24.12 36.55c-.09-7 .06-13.94.1-20.91zm2.7 17.32L33.06 47.61a11.46 11.46 0 0 1-6.26-3.72l20.86-20.84.05 9.91zM16.83 43.85l-5 5a33.24 33.24 0 0 1-3.8-12.64c0 .13 6.47 0 7.1.05-.49 2.23.51 5.23 1.7 7.59zm9.83 10.16l-5 5a24.08 24.08 0 0 1-2.58-1.67 25.07 25.07 0 0 1-3-2.66l4.86-4.89a19.7 19.7 0 0 0 4.53 3.59 12.83 12.83 0 0 0 1.19.63z"/><path d="M63.43 36.31c.18 6.8-2.37 12.41-6.77 17.34a28.45 28.45 0 0 1-7.64 6 30.2 30.2 0 0 1-4.84 2c-.87.28-3.86.55-4.21 1.45a1.58 1.58 0 0 0-.08.61q.05 7.78.05 15.51h-7.85v-9.49c0-1.56.1-3.16 0-4.72-.11-2 .07-1.75-1.71-2.4L28.74 62l5.94-6a20.9 20.9 0 0 0 10.65-2.16c7-3.54 10.27-10.19 11.6-17.57zM47.72 11.75v1.18l-2.71 2.71H24.22v-3.89C24.22 5.261 29.481 0 35.97 0s11.75 5.261 11.75 11.75z"/></g><path d="M71.36 9.31l-44.7 44.7-4.96 4.97L5 75.68 0 70.7l16.07-16.06 4.84-4.85 5.89-5.89 20.86-20.85L66.38 4.33l4.98 4.98z" fill="#db514b"/></svg>