<svg id="Layer_1_copy" data-name="Layer 1 copy" xmlns="http://www.w3.org/2000/svg" viewBox="0 0 71.36 79.25"><defs><style>.cls-1{fill:#d8d9da;}.cls-2{fill:#db514b;}</style></defs><path class="cls-1" d="M64.07,30.15,43.18,51.06c-.09-7,.06-13.94.1-20.91Z" transform="translate(-19.06 -14.51)"/><path class="cls-1" d="M66.77,47.47,52.12,62.12a11.46,11.46,0,0,1-6.26-3.72L66.72,37.56C66.75,40.87,66.8,44.16,66.77,47.47Z" transform="translate(-19.06 -14.51)"/><path class="cls-1" d="M35.89,58.36l-5,5a33.24,33.24,0,0,1-3.8-12.64c0,.13,6.47,0,7.1.05C33.7,53,34.7,56,35.89,58.36Z" transform="translate(-19.06 -14.51)"/><path class="cls-1" d="M45.72,68.52l-5,5a24.08,24.08,0,0,1-2.58-1.67,25.07,25.07,0,0,1-3-2.66L40,64.3a19.7,19.7,0,0,0,4.53,3.59A12.83,12.83,0,0,0,45.72,68.52Z" transform="translate(-19.06 -14.51)"/><path class="cls-1" d="M82.49,50.82c.18,6.8-2.37,12.41-6.77,17.34a28.45,28.45,0,0,1-7.64,6,30.2,30.2,0,0,1-4.84,2c-.87.28-3.86.55-4.21,1.45a1.58,1.58,0,0,0-.08.61Q59,86,59,93.73c-2.62,0-5.23,0-7.85,0V84.24c0-1.56.1-3.16,0-4.72-.11-2,.07-1.75-1.71-2.4l-1.64-.61,5.94-6a20.9,20.9,0,0,0,10.65-2.16c7-3.54,10.27-10.19,11.6-17.57Z" transform="translate(-19.06 -14.51)"/><path class="cls-1" d="M66.78,26.26v1.18l-2.71,2.71H43.28V26.26a11.75,11.75,0,1,1,23.5,0Z" transform="translate(-19.06 -14.51)"/><polygon class="cls-2" points="71.36 9.31 26.66 54.01 21.7 58.98 5 75.68 0 70.7 16.07 54.64 20.91 49.79 26.8 43.9 47.66 23.05 66.38 4.33 71.36 9.31"/></svg>