<svg id="Layer_1" data-name="Layer 1" xmlns="http://www.w3.org/2000/svg" viewBox="0 0 55.42 79.24"><defs><style>.cls-1{fill:#d8d9da;}</style></defs><path class="cls-1" d="M66.65,30.15c0,7.06.22,14.13.09,21.19a11.48,11.48,0,0,1-11.8,11.12A11.43,11.43,0,0,1,43.18,51.34c-.09-7.07.06-14.13.1-21.19Z" transform="translate(-27.08 -14.51)"/><path class="cls-1" d="M27.08,50.73c0,.13,6.47,0,7.11.05-.65,3,1.35,7.2,2.85,9.7a21,21,0,0,0,7.47,7.41,21.23,21.23,0,0,0,19.85.5c7-3.55,10.27-10.19,11.6-17.56H82.5c.17,6.79-2.39,12.4-6.78,17.32a27.69,27.69,0,0,1-7.64,6,29.36,29.36,0,0,1-4.84,2c-.86.28-3.86.55-4.21,1.45a1.79,1.79,0,0,0-.07.61V93.73c-2.61,0-5.23,0-7.84,0V84.25c0-1.57.09-3.17,0-4.73-.11-2,.06-1.75-1.72-2.4-4-1.46-7.77-2.76-11.23-5.31C31.35,66.78,28,59,27.08,50.73Z" transform="translate(-27.08 -14.51)"/><path class="cls-1" d="M43.28,30.15V26.26A11.75,11.75,0,0,1,55,14.51h0A11.75,11.75,0,0,1,66.78,26.26v3.89Z" transform="translate(-27.08 -14.51)"/></svg>