<svg xmlns="http://www.w3.org/2000/svg" viewBox="0 0 55.42 79.24" fill="#d8d9da" xmlns:v="https://vecta.io/nano"><path d="M39.57 15.64l.09 21.19c-.196 6.326-5.474 11.299-11.8 11.12A11.43 11.43 0 0 1 16.1 36.83c-.09-7.07.06-14.13.1-21.19zM0 36.22c0 .13 6.47 0 7.11.05-.65 3 1.35 7.2 2.85 9.7a21 21 0 0 0 7.47 7.41 21.23 21.23 0 0 0 19.85.5c7-3.55 10.27-10.19 11.6-17.56h6.54c.17 6.79-2.39 12.4-6.78 17.32a27.69 27.69 0 0 1-7.64 6 29.36 29.36 0 0 1-4.84 2c-.86.28-3.86.55-4.21 1.45a1.79 1.79 0 0 0-.07.61v15.52h-7.84v-9.48c0-1.57.09-3.17 0-4.73-.11-2 .06-1.75-1.72-2.4-4-1.46-7.77-2.76-11.23-5.31C4.27 52.27.92 44.49 0 36.22z"/><path d="M16.2 15.64v-3.89C16.2 5.272 21.442.017 27.92 0h0A11.75 11.75 0 0 1 39.7 11.75v3.89z"/></svg>