<svg xmlns="http://www.w3.org/2000/svg" height="218" width="421" xmlns:v="https://vecta.io/nano"><style><![CDATA[.B{fill:#4f545c}.C{fill:#72767d}.D{fill:#36393f}.E{fill:#36393e}]]></style><g fill-rule="evenodd"><path d="M0 125.639c0 9.436 7.649 17.085 17.085 17.085h29.45c16.506 0 29.886 13.381 29.886 29.888s13.382 29.887 29.888 29.887h265.564c5.622 0 10.18-4.558 10.18-10.18v-.001c0-5.622-4.558-10.18-10.18-10.18h-31.161a7.17 7.17 0 0 1-7.17-7.17v-.005a7.17 7.17 0 0 1 7.17-7.17h25.209c26.466 0 47.92-21.454 47.92-47.92s-21.454-47.92-47.92-47.92H314.52c-11.029 0-19.97-8.94-19.97-19.97v-.001c0-11.029-8.941-19.97-19.97-19.97H79.15C71.888 32.012 66 37.9 66 45.162v.006c0 7.263 5.888 13.15 13.15 13.15H93.8c13.872 0 25.117 11.245 25.117 25.117v.001c0 13.872-11.245 25.118-25.117 25.118H17.085C7.649 108.554 0 116.203 0 125.639" fill-opacity=".3" class="B"/><path d="M117.573 192h15.412l-.03-.377v-43.432c0-6.034 6.247-11.519 16.829-15.869v-.752c0-5.514 4.486-10 10-10h2.652a18.84 18.84 0 0 1 2.342-7.896V94.788c-.161.337-.498.573-.896.573a1 1 0 0 1-1-1V25h-60.657v5.13c2.93.44 5.498 2.117 7.056 4.735 1.845 3.103 1.888 6.834.114 9.978a1 1 0 0 1-.855.509l-.168.001c-2.292 0-4.427-.767-6.147-2.129V192h9.35c.327 0 .602.167.785.408h4.428c.183-.241.459-.408.785-.408" class="D"/><path d="M371.354 141.394c1.147-.845 2.732-.896 4.461-.148 1.857.803 3.99 2.694 4.286 4.617.333 2.161-.69 4.541-2.605 6.062-1.144.908-2.46 1.38-3.746 1.381-.645 0-1.282-.12-1.886-.362-1.105-.444-1.831-1.801-2.1-3.926-.301-2.382-.004-6.453 1.59-7.624zm-6.326 17.66c-.421.52-1.106.702-1.837.702-.952 0-1.983-.308-2.615-.58-1.837-.792-1.991-1.809-1.919-2.344v-.001c.117-.867.703-1.491 1.607-1.714 1.444-.351 3.78.407 4.544 1.483.896 1.265.523 2.081.22 2.454zm-6.608 1.112c4.464 2.446 11.99 1.174 17.444-3.034 2.247-1.735 7.246-6.486 5.13-13.128-1.158-3.633-3.821-6.893-7.5-9.181-2.659-1.652-5.518-2.522-8.161-2.522-.9 0-1.774.101-2.607.306-1.63.401-3.066 1.184-4.306 2.321v2.431c.165-.068.334-.125.51-.165.878-.199 1.837-.031 2.704.477v.001c1.499.881 2.299 2.468 1.991 3.948-.294 1.417-1.762 3.451-3.019 4.184-.732.427-1.366.576-1.893.576-.105 0-.197-.016-.293-.027z" class="C"/><path d="M371.749 148.767c.216 1.707.694 2.254.86 2.321 1.151.461 2.478.195 3.643-.729 1.342-1.066 2.095-2.751 1.873-4.192-.139-.902-1.419-2.357-3.103-3.085-.311-.134-.916-.357-1.515-.357-.344 0-.686.074-.968.281-.476.349-1.137 3.022-.79 5.761m-12.15-4.691c.752-.439 1.893-2.018 2.069-2.864.146-.702-.416-1.446-1.047-1.817-.319-.187-.648-.284-.952-.284a1.34 1.34 0 0 0-.292.031c-.393.091-.708.359-.957.705v4.45c.268.15.661.081 1.179-.221" class="D"/><path d="M363.183 157.766c-.151-.198-.932-.612-1.769-.718a2.12 2.12 0 0 0-.614-.002c.504.359 1.695.712 2.383.72" class="B"/><path d="M331.024 115.379c3.025 1.971 4.708 5.301 4.502 8.906a1 1 0 0 1-.543.833 9.96 9.96 0 0 1-4.543 1.107c-1.885 0-3.759-.547-5.422-1.631a10 10 0 0 1-2.562-2.42v42.889a1 1 0 0 1-1 1c-.183 0-.346-.063-.494-.149v9.063c3.236 0 5.868 2.631 5.868 5.866v3.454c0 .989-.805 1.793-1.794 1.793h-1.056c.486 1.931.734 3.911.751 5.91h31.689v-16.39c-1.862-.356-3.558-1.103-4.183-2.559-.428-.997-.215-1.675.038-2.068.687-1.064 2.252-1.094 3.634-1.121l.511-.013V83.527c-1.599 2.476-4.006 4.354-6.954 5.277-1.294.405-2.61.603-3.909.603-3.183 0-6.268-1.19-8.706-3.448-.261-.241-.375-.602-.298-.949.916-4.154 3.712-7.456 7.565-9.076-.677-1.457-1.01-3.079-.913-4.769a1 1 0 0 1 .544-.833 9.84 9.84 0 0 1 9.964.524 10.02 10.02 0 0 1 2.707 2.604V43.59h-33.964v70.685a9.82 9.82 0 0 1 8.568 1.103" class="D"/><path d="M322.738 192c-.018-2.004-.309-3.983-.84-5.91h-1.872c-.53 1.926-.821 3.905-.839 5.91z" class="B"/><path d="M324.83 184.09v-3.247c0-2.132-1.735-3.867-3.867-3.867a3.87 3.87 0 0 0-3.867 3.867v3.247z" class="D"/><path d="M40.83 192h2.245v-17.402H40.83z" class="E"/><path d="M37.73 165.548v5.879c.468.326.883.722 1.233 1.17h7.211v-7.049c0-2.328-1.894-4.221-4.221-4.221s-4.223 1.893-4.223 4.221" class="B"/><path d="M57.092 182.138h1.45v-2.883c0-2.017-1.641-3.659-3.658-3.659s-3.659 1.642-3.659 3.659v2.883h1.45z" class="C"/><path d="m53.675 191.999h2.417v-7.861h-2.417z" class="B"/><path d="M36.099 178.954h2.066v-2.883c0-2.017-1.641-3.658-3.658-3.658s-3.659 1.641-3.659 3.658v2.883h2.067z" class="E"/><path d="m33.915 191.999h1.184v-11.045h-1.184z" class="B"/><path d="M107.922 43.34c1.137-2.397 1.014-5.143-.361-7.453s-3.728-3.73-6.376-3.875a7.85 7.85 0 0 0 .361 7.453c1.374 2.311 3.728 3.73 6.376 3.875M397.72 89.977a7.86 7.86 0 0 0 5.448 5.1c1.604-2.114 2.046-4.826 1.174-7.37s-2.885-4.414-5.448-5.099c-1.604 2.113-2.046 4.826-1.174 7.369" class="C"/><path d="M346.023 75.278c3.402-.858 6.897-.317 9.822 1.478-.543-1.707-1.649-3.199-3.223-4.225-2.252-1.467-4.991-1.705-7.432-.666a7.88 7.88 0 0 0 .833 3.413m-19.913 47.64c2.253 1.469 4.992 1.705 7.432.667-.036-2.653-1.357-5.063-3.61-6.531s-4.99-1.705-7.432-.666a7.86 7.86 0 0 0 3.61 6.53m-57.19-57.965c.48 1.568 1.638 2.766 3.154 3.296.959-1.288 1.248-2.929.768-4.497s-1.637-2.765-3.153-3.296c-.96 1.289-1.249 2.93-.769 4.497M63.867 134.006c2.564.678 5.241.055 7.262-1.719s2.984-4.347 2.642-6.978c-2.566-.679-5.241-.056-7.261 1.718s-2.985 4.348-2.643 6.979" class="B"/><path d="M84.416 79.453a10.77 10.77 0 0 0-10.41-.463c.108 3.721 2.046 7.051 5.264 8.993s7.069 2.103 10.411.463a10.77 10.77 0 0 0-5.265-8.993" class="C"/><path d="M358.395 38.54a10.77 10.77 0 0 0 7.573 7.157c3.634.958 7.375.036 10.123-2.473a10.77 10.77 0 0 0-7.573-7.157c-3.634-.963-7.375-.039-10.123 2.473" class="B"/><path d="M356.116 79.408c-2.857-2.385-6.635-3.142-10.224-2.02s-6.259 3.899-7.247 7.488c2.858 2.386 6.637 3.143 10.224 2.019a10.77 10.77 0 0 0 7.247-7.487m6.075 94.335c6.226-.979 9.236-5.504 9.923-9.081.315-1.64.066-2.661-.147-2.976-2.683 1.135-5.484 1.735-8.097 1.735-1.968 0-3.828-.334-5.45-1.021v7.074c1.782-.498 3.579-1.283 4.251-2.294.307-.459.927-.583 1.387-.279a1 1 0 0 1 .279 1.386c-1.432 2.153-5.219 3.136-6.78 3.458-.456.095-1.017.105-1.611.117-.526.01-1.578.03-1.943.195.012.047.033.114.072.205.687 1.603 5.645 1.87 8.116 1.481" class="C"/><g class="E"><path d="M244.772 197a8.67 8.67 0 0 1-3.136-.592v3.13a21.1 21.1 0 0 1-6.222 15.02c-.006.006-.011.013-.017.019 4.08-.343 8.036-.784 11.844-1.312v-16.626a8.68 8.68 0 0 1-2.469.361"/><path d="M239.553 199.538v-4.287l-.348-.263c-.986 1.897-2.236 3.666-3.791 5.219-3.622 3.624-5.615 8.436-5.615 13.554v1.221l2.622-.175c.474-.594.971-1.172 1.516-1.717a19.04 19.04 0 0 0 5.616-13.552m-56.701-.52v-2.097c-1.587-.204-3.04-.834-4.243-1.773v17.62c3.413.533 6.958.993 10.618 1.375-.07-.073-.131-.152-.202-.223-3.98-3.98-6.173-9.273-6.173-14.902m90.074 2.591a2.87 2.87 0 0 1-2.863-2.863V177.03a2.87 2.87 0 0 1 2.863-2.864 2.87 2.87 0 0 1 2.864 2.864v21.716a2.87 2.87 0 0 1-2.864 2.863zm5.207-26.164c0-2.871-2.335-5.206-5.207-5.206s-5.207 2.335-5.207 5.206v24.813c0 2.872 2.335 5.207 5.207 5.207s5.207-2.335 5.207-5.207zm-87.943 18.932a8.69 8.69 0 0 1-5.255 2.565v2.075a18.86 18.86 0 0 0 5.563 13.429c.627.628 1.19 1.299 1.723 1.99l2.361.205v-8.131c0-4.487-1.553-8.731-4.392-12.133m-26.198-9.43c.557 0 1.011-.454 1.011-1.011v-15.105l-2.023-.5v15.605c0 .557.454 1.011 1.012 1.011"/><path d="M163.992 191.656a5.62 5.62 0 0 0 5.611-5.611v-16.198l-2.517-.54v14.629a3.1 3.1 0 0 1-3.094 3.093c-1.707 0-3.094-1.387-3.094-3.093v-16.158l-2.518-.718v18.985a5.62 5.62 0 0 0 5.612 5.611m34.827-12.535v-.06c-1.074.949-2.468 1.543-4.01 1.543a5.91 5.91 0 0 1-2.122-.399v2.304a3.98 3.98 0 0 0 2.122.621c2.211 0 4.01-1.798 4.01-4.009m85.692-4.464v28.201c1.468-.797 2.768-1.622 3.927-2.468v-35.75a1.042 1.042 0 1 1 2.083 0v34.062c2.429-2.247 3.753-4.627 3.753-7.08v-37.648c-2.745 3.932-8.237 7.498-15.846 10.496 3.62 1.961 6.083 5.791 6.083 10.187m-54.366 4.587a21.27 21.27 0 0 1 3.792-5.146c.26-.26.503-.532.746-.804-.013-.013-.023-.029-.036-.042l-2.348.167c-1.029 1.81-1.762 3.77-2.154 5.825m-.347 9.874v15.501c1.028-2.151 2.403-4.145 4.139-5.881a19.15 19.15 0 0 0 3.766-5.368 8.66 8.66 0 0 1-1.655-5.09v-11.573c0-.541-.108-1.053-.268-1.541-.125.132-.238.271-.367.4-3.622 3.623-5.615 8.433-5.615 13.552m-31.001-14.393c-.008-.142-.041-.276-.062-.414-.641-.265-1.263-.564-1.866-.895l-2.754-.196c-.881.901-1.428 2.13-1.428 3.487v1.196a3.95 3.95 0 0 0 2.122.619c2.137 0 3.874-1.687 3.988-3.797m50.527 20.978v17.265l4.946-.807v-27.989a1.041 1.041 0 1 1 2.083 0v27.61l4.989-1.019v-15.486a1.042 1.042 0 1 1 2.083 0v15.006c3.546-.838 6.872-1.758 9.912-2.757-.137.008-.272.021-.41.021a7.3 7.3 0 0 1-7.29-7.29v-24.813a7.3 7.3 0 0 1 7.29-7.289 7.3 7.3 0 0 1 7.289 7.289v24.813c0 2.423-1.193 4.568-3.017 5.894 1.874-.715 3.63-1.456 5.23-2.229v-29.265c0-4.321-2.905-7.972-6.863-9.117-3.003 1.058-6.292 2.03-9.818 2.914a9.44 9.44 0 0 0-2.323 6.203v14.278a1.042 1.042 0 1 1-2.083 0v-14.278c0-1.981.502-3.848 1.383-5.48-2.052.466-4.177.903-6.372 1.309v6.099a1.041 1.041 0 1 1-2.083 0v-5.725l-.778.133v17.287c0 3.138-1.673 5.887-4.168 7.423m24.384-18.674a.78.78 0 0 0-.781-.781c-.423 0-.781.358-.781.781v21.716c0 .423.358.781.781.781a.78.78 0 0 0 .781-.781zm-134.939-19.11c-1.585-1.266-2.863-2.583-3.813-3.944v37.648c0 2.472 1.347 4.869 3.813 7.132zm12.689 6.814l-5.4-2.34v20.689a1.041 1.041 0 1 1-2.082 0v-21.763l-3.124-1.867v40.984c.939.681 1.982 1.346 3.124 1.996V188.88a1.041 1.041 0 1 1 2.082 0v14.667c1.645.828 3.445 1.625 5.4 2.387zm47.361 28.368v-3.771a1.041 1.041 0 1 1 2.083 0v3.771a1.041 1.041 0 1 1-2.083 0zm5.207-17.443c-1.073-.111-2.112-.329-3.124-.612v4.076c0 3.358-2.734 6.092-6.093 6.092-.747 0-1.46-.142-2.122-.389v3.455c0 1.613-.448 3.119-1.214 4.416a20.89 20.89 0 0 1 5.191 13.814v8.286l7.362.418zm-33.824 33.927a1.041 1.041 0 1 1-2.083 0v-4.513a5.04 5.04 0 0 0-5.034-5.034 5.04 5.04 0 0 0-5.032 5.034 1.041 1.041 0 1 1-2.083 0c0-3.924 3.192-7.117 7.115-7.117a7.13 7.13 0 0 1 7.117 7.117zm6.325-16.775a8.66 8.66 0 0 1-1.283-4.53v-17.369l-3.557-.645v15.779c0 4.243-3.452 7.694-7.694 7.694s-7.695-3.451-7.695-7.694v-19.621l-2.757-.928v41.221c3.053 1.096 6.428 2.109 10.065 3.031v-.338a2.78 2.78 0 0 0-2.776-2.776 1.041 1.041 0 1 1 0-2.083c2.68 0 4.859 2.18 4.859 4.859v.846c3.41.809 7.03 1.54 10.838 2.178zm39.648 12.233a1.04 1.04 0 0 1-1.042-1.042v-22.356a1.042 1.042 0 1 1 2.084 0v22.356a1.04 1.04 0 0 1-1.042 1.042zm11.541-22.173a21.18 21.18 0 0 1 1.708-8.348 18.83 18.83 0 0 1-5.353 1.171v13.636a1.041 1.041 0 1 1-2.082 0V175.76h-9.979v7.321a1.041 1.041 0 1 1-2.083 0v-7.321h-3.818v39.535l3.818.098v-21.216a1.041 1.041 0 1 1 2.083 0v21.243l2.605.02.518-.003v-2.757a1.042 1.042 0 1 1 2.084 0v2.74l4.772-.09v-19.515a1.041 1.041 0 1 1 2.082 0v19.443l3.645-.162z"/></g><g class="B"><path d="M176.527 192.81v19.624l2.083.333v-17.62a8.76 8.76 0 0 1-2.083-2.337m14.946-.114a8.81 8.81 0 0 1-1.283 1.681c2.839 3.402 4.391 7.647 4.391 12.133v8.131l2.083.155v-8.286a20.89 20.89 0 0 0-5.191-13.814m-6.538 6.321v-2.075a8.6 8.6 0 0 1-.968.057 8.72 8.72 0 0 1-1.115-.079v2.097c0 5.629 2.193 10.922 6.173 14.902.071.071.132.15.202.223l2.994.293c-.533-.69-1.097-1.361-1.724-1.989-3.586-3.585-5.562-8.355-5.562-13.429m-24.106 5.534a1.04 1.04 0 1 0 0 2.083 2.78 2.78 0 0 1 2.776 2.775v.338l2.083.509v-.847c0-2.678-2.179-4.858-4.859-4.858"/><path d="M163.085 197.955c-3.923 0-7.115 3.193-7.115 7.117a1.04 1.04 0 1 0 2.082 0 5.04 5.04 0 0 1 5.033-5.034 5.04 5.04 0 0 1 5.034 5.034v4.513a1.04 1.04 0 1 0 2.083 0v-4.513a7.13 7.13 0 0 0-7.117-7.117m-9.544-32.459l-2.083-.763v41.201l2.083.784zm10.452 28.243c4.243 0 7.694-3.451 7.694-7.694v-15.779l-2.083-.418v16.197a5.62 5.62 0 0 1-5.611 5.611 5.62 5.62 0 0 1-5.612-5.611v-18.984l-2.083-.637v19.621c0 4.243 3.452 7.694 7.695 7.694"/><path d="M163.992 187.029a3.1 3.1 0 0 0 3.094-3.093v-14.629l-2.083-.476v15.105a1.01 1.01 0 0 1-1.011 1.01c-.558 0-1.012-.453-1.012-1.01v-15.605l-2.082-.553v16.158c0 1.706 1.387 3.093 3.094 3.093m-18.976-2.906a1.04 1.04 0 0 0 1.041-1.042v-20.688l-2.083-1.074v21.762a1.04 1.04 0 0 0 1.042 1.042m1.041 4.757a1.041 1.041 0 1 0-2.083 0v13.552l2.083 1.115zm-5.207-29.429l-2.083-1.533v40.836c.621.57 1.323 1.13 2.083 1.681zm65.257 16.309h-.11c-.666 0-1.324-.036-1.973-.104v39.557l2.083.082zm-5.207 3.361v-4.076a18.78 18.78 0 0 1-2.167-.735l.063.414c-.114 2.11-1.851 3.797-3.989 3.797-.782 0-1.507-.23-2.122-.619v2.303a5.91 5.91 0 0 0 2.122.399c1.542 0 2.936-.594 4.01-1.543v.06c0 2.211-1.799 4.009-4.01 4.009a3.98 3.98 0 0 1-2.122-.621v2.315c.662.247 1.375.389 2.122.389 3.359 0 6.093-2.734 6.093-6.092m10.066 14.015a1.04 1.04 0 0 0-1.042 1.042v21.215l2.084.027v-21.242a1.04 1.04 0 0 0-1.042-1.042m0-9.013a1.04 1.04 0 0 0 1.042-1.042v-7.32h-2.084v7.32a1.04 1.04 0 0 0 1.042 1.042m6.248-2.477a1.041 1.041 0 1 0-2.083 0v22.356a1.041 1.041 0 1 0 2.083 0zm-1.042 29.994a1.04 1.04 0 0 0-1.042 1.041v2.757l2.084-.017v-2.74a1.04 1.04 0 0 0-1.042-1.041m-15.273-18.538v-3.771a1.041 1.041 0 1 0-2.083 0v3.771a1.041 1.041 0 1 0 2.083 0m22.128-2.73a1.04 1.04 0 0 0 1.042-1.042v-13.636l-1.334.068h-.749v13.568a1.04 1.04 0 0 0 1.041 1.042m0 4.403a1.04 1.04 0 0 0-1.041 1.042v19.514l2.083-.072v-19.442a1.04 1.04 0 0 0-1.042-1.042m12.384 5.433c1.555-1.553 2.805-3.322 3.791-5.219-.568-.472-1.069-1.018-1.501-1.617-.931 1.964-2.183 3.785-3.767 5.368-1.735 1.736-3.11 3.73-4.138 5.881V189.12c0-5.12 1.993-9.93 5.615-13.552.129-.129.242-.269.367-.401-.231-.704-.601-1.342-1.098-1.871-.243.272-.486.544-.746.804a21.32 21.32 0 0 0-3.792 5.146c.393-2.055 1.126-4.015 2.155-5.825l-.499.036c-.76.414-1.56.758-2.378 1.067a21.2 21.2 0 0 0-1.707 8.348v32.226l2.083-.115v-1.221a19.05 19.05 0 0 1 5.615-13.554m6.222-.669v-3.13c-.75-.291-1.449-.682-2.083-1.157v4.287a19.04 19.04 0 0 1-5.615 13.552c-.545.545-1.042 1.123-1.516 1.717l2.976-.23c.006-.006.01-.013.016-.019a21.1 21.1 0 0 0 6.222-15.02m5.605-2.899v16.626l2.083-.296v-17.265a8.69 8.69 0 0 1-2.083.935m9.112-12.466a1.041 1.041 0 1 0-2.083 0v27.989l2.083-.379zm-1.041-6.545a1.04 1.04 0 0 0 1.041-1.042v-6.099l-2.083.374v5.725a1.04 1.04 0 0 0 1.042 1.042m27.117-2.97v29.265c.723-.349 1.419-.703 2.083-1.064v-28.201c0-4.396-2.463-8.226-6.084-10.187-.926.365-1.875.723-2.862 1.07 3.958 1.145 6.863 4.796 6.863 9.117m-21.087 14.278a1.042 1.042 0 1 0 2.083 0v-14.278a9.44 9.44 0 0 1 2.323-6.202l-3.023.722a11.51 11.51 0 0 0-1.383 5.48zm1.041 5.3a1.04 1.04 0 0 0-1.041 1.042v15.485l2.083-.479v-15.006a1.04 1.04 0 0 0-1.042-1.042m10.546 11.227c-2.872 0-5.207-2.335-5.207-5.207v-24.813c0-2.872 2.335-5.207 5.207-5.207s5.207 2.335 5.207 5.207v24.813c0 2.872-2.335 5.207-5.207 5.207m7.29-5.207v-24.813a7.3 7.3 0 0 0-7.29-7.289 7.3 7.3 0 0 0-7.289 7.289v24.813a7.3 7.3 0 0 0 7.289 7.29c.139 0 .274-.014.411-.021l3.861-1.375c1.825-1.327 3.018-3.471 3.018-5.894m-7.29-.731c-.423 0-.781-.358-.781-.781v-21.716c0-.422.358-.78.781-.78a.78.78 0 0 1 .781.78v21.716a.78.78 0 0 1-.781.781zm2.864-22.497a2.87 2.87 0 0 0-2.864-2.863 2.87 2.87 0 0 0-2.863 2.863v21.716a2.87 2.87 0 0 0 2.863 2.864 2.87 2.87 0 0 0 2.864-2.864zm14.731-12.388a1.042 1.042 0 1 0-2.083 0v35.75a23.32 23.32 0 0 0 2.083-1.688zm-83.405-88.418l6.559 11.961c.221.403.602.447.755.447s.534-.044.755-.447l6.559-11.961c1.661-3.028 1.265-6.824-.985-9.445-1.586-1.847-3.893-2.908-6.329-2.908s-4.743 1.061-6.329 2.908c-2.25 2.621-2.646 6.417-.985 9.445"/></g><path d="M247.368 171.909h-11.236c1.185 1.254 1.917 2.941 1.917 4.798v11.573a6.73 6.73 0 0 0 6.72 6.72 6.73 6.73 0 0 0 6.723-6.72v-16.835c-1.33.296-2.707.464-4.124.464m-54.764 0h-11.236c-1.418 0-2.795-.168-4.124-.464v16.835a6.73 6.73 0 0 0 6.72 6.72 6.73 6.73 0 0 0 6.723-6.72v-11.573c0-1.857.732-3.544 1.917-4.798" class="C"/><path d="M168.368 109.09c3.402-3.203 7.97-5.182 13-5.182h66c5.03 0 9.598 1.979 13 5.182v-.729c0-7.169-5.832-13-13-13h-66c-7.168 0-13 5.831-13 13z" class="B"/><g class="C"><path d="M245.797 140.331a1.5 1.5 0 0 1 2.121-.036c1.74 1.682 5.156 1.683 6.896 0a1.5 1.5 0 0 1 2.085 2.157c-1.448 1.4-3.49 2.099-5.533 2.099s-4.085-.699-5.533-2.099a1.5 1.5 0 0 1-.036-2.121m-62.895 2.121c-1.448 1.4-3.491 2.1-5.533 2.1s-4.085-.7-5.533-2.1a1.5 1.5 0 0 1 2.085-2.157c1.74 1.683 5.156 1.682 6.896 0a1.5 1.5 0 0 1 2.085 2.157m-18.467-20.883h2.342a1 1 0 1 1 0 2h-6.993a8.01 8.01 0 0 0-8 8v10.542a8.01 8.01 0 0 0 8 8h6.993a1 1 0 1 1 0 2h-2.41v.798c0 9.374 7.626 17 17 17h10.947c-3.284-3.417-5.316-8.046-5.316-13.148V142.19a8.01 8.01 0 0 1 8-8h27.421a1 1 0 0 1 1 1h4.247a1 1 0 0 1 1-1h5.071a8.01 8.01 0 0 1 8 8v2.744a11.61 11.61 0 0 1 1.614-.125c6.467 0 11.73 5.262 11.73 11.73s-5.263 11.73-11.73 11.73h-5.532a19.02 19.02 0 0 1-1.398 1.64h10.946c9.374 0 17-7.626 17-17v-.798h-1.993a1 1 0 1 1 0-2h6.993a8.01 8.01 0 0 0 8-8v-10.542a8.01 8.01 0 0 0-8-8h-6.993a1 1 0 1 1 0-2h1.925c-.687-8.748-8.01-15.66-16.932-15.66h-66c-8.922 0-16.245 6.912-16.932 15.66"/><path d="M222.419 136.19h-27.421a6.01 6.01 0 0 0-6 6v3.867c1.226-2.043 3.457-3.422 6-3.422h38.739c2.311 0 4.365 1.141 5.641 2.881l.359-.131v-3.195a6.01 6.01 0 0 0-6-6h-5.071a1 1 0 0 1-1-1h-4.247a1 1 0 0 1-1 1"/></g><path d="m208.9985 162.2691c1.65 0 3 1.35 3 3s-1.35 3-3 3h-6c-1.65 0-3-1.35-3-3s1.35-3 3-3zm24.739-19.634h-38.739c-2.543 0-4.774 1.379-6 3.422v10.704c0 9.374 7.626 17 17 17h16.739c4.932 0 9.367-2.125 12.476-5.492h-8.959c-.067 0-.129-.021-.193-.033-.107.012-.213.033-.324.033h-6c-1.65 0-3-1.35-3-3s1.35-3 3-3h6c1.297 0 2.398.84 2.814 1.999 1.505-1.567 3.069-4.066 3.069-7.729 0-5.072 3.242-9.39 7.758-11.023-1.276-1.74-3.33-2.881-5.641-2.881z" fill="#b9bbbe"/><path d="M225.737 162.269h-6a3.01 3.01 0 0 0-3 3 3.01 3.01 0 0 0 3 3h6c.111 0 .217-.021.325-.033a.99.99 0 0 1-.783-.744 1 1 0 0 1 .541-1.123c.109-.055 1.397-.713 2.731-2.101-.416-1.159-1.517-1.999-2.814-1.999m-22.739 0a3.01 3.01 0 0 0-3 3 3.01 3.01 0 0 0 3 3h6a3.01 3.01 0 0 0 3-3 3.01 3.01 0 0 0-3-3zm-47.214-21.158a5 5 0 0 0 5 5h2.993a1 1 0 0 0 1-1V128.57a1 1 0 0 0-1-1h-2.993a5 5 0 0 0-5 5zm109.59 5h2.993a5 5 0 0 0 5-5v-8.541a5 5 0 0 0-5-5h-2.993a1 1 0 0 0-1 1v16.541a1 1 0 0 0 1 1" class="B"/><path d="M229.369 166.269h13.982c5.365 0 9.73-4.365 9.73-9.73s-4.365-9.73-9.73-9.73-9.731 4.365-9.731 9.73a12.85 12.85 0 0 1-4.251 9.73" fill="#b9bbbe"/><g fill="#202225"><path d="M372.538 143.006c.282-.207.625-.281.969-.281.598 0 1.204.223 1.514.357 1.684.728 2.964 2.183 3.103 3.086.222 1.441-.53 3.125-1.872 4.191-1.166.924-2.493 1.19-3.643.73-.166-.067-.645-.615-.861-2.322-.346-2.739.314-5.411.79-5.761m-.674 9.938c.604.243 1.241.362 1.886.362 1.286-.001 2.602-.473 3.746-1.381 1.915-1.521 2.938-3.9 2.605-6.062-.296-1.923-2.429-3.814-4.286-4.617-1.729-.747-3.314-.697-4.461.148-1.594 1.172-1.891 5.242-1.59 7.624.269 2.125.995 3.483 2.1 3.926m-11.6 2.173c-.904.223-1.489.847-1.606 1.713v.001c-.072.536.082 1.553 1.918 2.345.632.272 1.663.58 2.615.58.732 0 1.416-.182 1.837-.702.303-.374.676-1.189-.22-2.455-.763-1.075-3.1-1.834-4.544-1.482m-30.332-38.064c2.252 1.468 3.574 3.878 3.61 6.531-2.44 1.038-5.179.802-7.432-.667-1.707-1.112-2.879-2.766-3.363-4.656-.285-1.116.503-2.238 1.641-2.416 1.901-.299 3.859.11 5.544 1.208m-8.97 48.859c.148.087.31.149.494.149a1 1 0 0 0 1-1v-42.888a10.03 10.03 0 0 0 2.561 2.42c1.664 1.084 3.538 1.631 5.423 1.631 1.544 0 3.095-.367 4.542-1.107.313-.16.524-.485.544-.836.205-3.604-1.478-6.933-4.502-8.903-1.946-1.269-4.183-1.798-6.387-1.575-1.178.119-2.181-.864-2.181-2.049V43.591 41a1 1 0 1 0-2 0v4 120.062c0 .369.209.678.506.851M42.225 81.389a1 1 0 0 0 1-1V78.64a1 1 0 1 0-2 0v1.749a1 1 0 0 0 1 1m121.656 13.972c.398 0 .735-.237.896-.573.062-.131.104-.273.104-.427V1a1 1 0 1 0-2 0v24 69.361a1 1 0 0 0 1 1m193.539-68.36a1 1 0 0 0 1-1v-2.283a1 1 0 1 0-2 0v2.283a1 1 0 0 0 1 1m41.474 55.607c2.563.685 4.576 2.556 5.448 5.1l.034.102c1.393 4.241-5.141 6.452-6.63 2.243l-.026-.076c-.872-2.543-.43-5.256 1.174-7.369m4.466 14.563a.93.93 0 0 0 .189.019c.285 0 .56-.123.752-.341 2.381-2.714 3.104-6.374 1.933-9.79s-3.986-5.863-7.532-6.546a.99.99 0 0 0-.941.323c-2.381 2.714-3.104 6.374-1.933 9.79s3.986 5.862 7.532 6.545M269.689 60.457c1.516.53 2.674 1.728 3.154 3.296s.191 3.208-.768 4.497a5.01 5.01 0 0 1-3.155-3.296c-.48-1.568-.19-3.209.769-4.497m2.513 9.907a1.04 1.04 0 0 0 .221.025c.273 0 .538-.112.73-.316 1.754-1.871 2.353-4.453 1.602-6.906a6.99 6.99 0 0 0-5.193-4.824 1 1 0 0 0-.951.291 6.99 6.99 0 0 0-1.603 6.905c.751 2.453 2.693 4.256 5.194 4.825M55.462 50.676a5.07 5.07 0 0 1 4.104-1.994 5.01 5.01 0 0 1-.844 4.484 5.04 5.04 0 0 1-4.103 1.993c-.451-1.541-.152-3.18.843-4.483m-1.697 6.421c.322.043.641.064.958.064 2.189 0 4.229-1.001 5.589-2.781 1.557-2.038 1.893-4.667.899-7.032-.138-.327-.439-.557-.791-.604-2.542-.336-4.991.68-6.547 2.718s-1.893 4.667-.899 7.032a1 1 0 0 0 .791.603m12.745 69.93a7.98 7.98 0 0 1 3.141-1.707c2.425-.669 4.553 1.754 3.576 4.072-.458 1.087-1.165 2.076-2.098 2.895-2.021 1.774-4.698 2.397-7.262 1.719a7.86 7.86 0 0 1 2.643-6.979m-3.85 8.701c1.076.368 2.175.549 3.262.549 2.364 0 4.668-.855 6.526-2.487 2.714-2.383 3.905-5.918 3.187-9.457a1 1 0 0 0-.656-.747c-3.416-1.168-7.075-.444-9.788 1.938s-3.905 5.918-3.187 9.457a1 1 0 0 0 .656.747m219.491-58.37c2.288-2.983 5.814-4.537 9.522-4.231a10.77 10.77 0 0 1-1.618 10.294c-2.288 2.983-5.814 4.537-9.523 4.231-1.257-3.503-.669-7.312 1.619-10.294m-2.464 12.213a13.35 13.35 0 0 0 1.776.12c3.983 0 7.697-1.817 10.179-5.053a12.76 12.76 0 0 0 1.666-12.825 1 1 0 0 0-.789-.605c-4.639-.621-9.107 1.22-11.955 4.933a12.76 12.76 0 0 0-1.666 12.825 1 1 0 0 0 .789.605m74.388 82.69c-.039-.091-.06-.158-.071-.205.364-.165 1.416-.185 1.943-.195.593-.011 1.154-.022 1.61-.116 1.561-.323 5.349-1.305 6.78-3.458a1 1 0 0 0-1.665-1.108c-.272.409-.727.781-1.291 1.111-1.311.769-2.961-.235-2.961-1.755V162.4c1.622.686 3.482 1.021 5.45 1.021 2.614 0 5.414-.601 8.097-1.735.213.315.462 1.336.148 2.975-.687 3.578-3.698 8.102-9.924 9.081-2.471.389-7.429.122-8.116-1.481zm14.443-136.195c3.117.825 5.616 2.896 6.987 5.703a1.94 1.94 0 0 1-.642 2.427c-2.581 1.761-5.778 2.322-8.895 1.5s-5.617-2.896-6.987-5.704a1.94 1.94 0 0 1 .641-2.426c2.581-1.763 5.778-2.326 8.896-1.5zM358.42 144.297v-4.45c.248-.346.563-.614.957-.704.094-.022.191-.032.291-.032.304 0 .634.097.953.285.63.371 1.192 1.114 1.046 1.816-.175.846-1.317 2.425-2.069 2.864-.517.302-.91.371-1.178.221zm4.306-11.69c.833-.205 1.707-.306 2.607-.306 2.642 0 5.502.87 8.161 2.522 3.679 2.288 6.342 5.548 7.5 9.181 2.116 6.642-2.883 11.393-5.13 13.128-5.455 4.208-12.98 5.48-17.444 3.034v-13.813c.096.011.188.027.293.027.527 0 1.16-.149 1.893-.576 1.257-.733 2.725-2.767 3.019-4.185.308-1.48-.492-3.066-1.991-3.947-.868-.509-1.827-.678-2.704-.478-.176.04-.345.097-.51.165v-2.431c1.239-1.137 2.676-1.92 4.306-2.321zm-45.63 51.483v-3.247a3.87 3.87 0 0 1 3.866-3.867 3.87 3.87 0 0 1 3.867 3.867v3.247zm2.091 7.909c.018-2.005.309-3.984.839-5.909h1.872c.531 1.926.822 3.905.84 5.909zm-51.404-26.248c-2.548.693-4.65-1.944-3.456-4.298a18.82 18.82 0 0 0 2.04-8.545v-.797h3a10 10 0 0 0 10-10v-2.881c0-2.256 2.399-3.699 4.4-2.659 6.659 3.461 10.507 7.433 10.507 11.619 0 6.868-10.327 13.168-26.491 17.561zm26.491 25.871c0 2.453-1.324 4.833-3.753 7.08-.618.572-1.323 1.134-2.083 1.688-1.159.846-2.459 1.671-3.927 2.468-.663.361-1.36.715-2.082 1.064-1.601.773-3.356 1.514-5.23 2.229-1.237.47-2.515.932-3.862 1.375-3.04.999-6.366 1.919-9.913 2.757l-2.082.479a165.34 165.34 0 0 1-4.99 1.02l-2.082.378-4.946.808-2.083.296a220.33 220.33 0 0 1-11.844 1.312l-2.976.23-2.622.176-2.083.114-3.645.162-2.082.072-4.773.09-2.083.017-.518.004c-.873 0-1.739-.012-2.605-.021l-2.083-.027-3.819-.097-2.083-.082a248.51 248.51 0 0 1-7.361-.418l-2.083-.155-2.36-.206-2.994-.293a209.38 209.38 0 0 1-10.618-1.376l-2.082-.333a164.89 164.89 0 0 1-10.839-2.177l-2.082-.509c-3.637-.922-7.013-1.935-10.066-3.03a80.96 80.96 0 0 1-2.083-.783c-1.954-.762-3.755-1.56-5.4-2.387a46.58 46.58 0 0 1-2.082-1.115c-1.141-.65-2.185-1.316-3.124-1.997-.76-.551-1.462-1.111-2.083-1.68-2.466-2.263-3.813-4.661-3.813-7.133V159.63c0-1.945 2.242-2.973 3.758-1.755.019.014.037.029.055.044a30.22 30.22 0 0 0 2.083 1.532c.957.64 2.01 1.26 3.124 1.868.667.363 1.361.721 2.082 1.073 1.667.813 3.46 1.597 5.4 2.341l2.083.762c.895.317 1.813.627 2.757.929l2.083.636 2.518.718 2.082.553 2.023.5 2.083.476 2.517.54 2.083.419 3.557.645v17.369c0 1.66.475 3.207 1.284 4.529a8.78 8.78 0 0 0 2.082 2.338c1.203.939 2.656 1.569 4.243 1.773a8.72 8.72 0 0 0 1.115.079 8.6 8.6 0 0 0 .968-.057 8.69 8.69 0 0 0 5.255-2.565 8.84 8.84 0 0 0 1.283-1.681 8.66 8.66 0 0 0 1.214-4.416v-3.456-2.315-2.304-2.303-1.195c0-1.357.547-2.586 1.428-3.488l2.754.196a18.93 18.93 0 0 0 1.866.896c.7.291 1.427.528 2.167.735 1.012.282 2.051.5 3.123.611.649.067 1.307.104 1.973.104h.11 3.819 2.083 9.979.748c.45 0 .892-.037 1.334-.068a18.85 18.85 0 0 0 5.352-1.17 18.97 18.97 0 0 0 2.378-1.068l.009-.003 2.838-.2c.012.013.022.03.035.043a4.99 4.99 0 0 1 1.098 1.871c.159.488.268 1 .268 1.541v11.573c0 1.9.618 3.655 1.654 5.09.433.599.934 1.145 1.502 1.617.112.093.231.176.348.263a8.7 8.7 0 0 0 2.083 1.157c.974.377 2.029.592 3.136.592a8.68 8.68 0 0 0 2.469-.361 8.69 8.69 0 0 0 2.083-.935c2.495-1.536 4.168-4.285 4.168-7.423v-17.287l.778-.133 2.082-.374c2.196-.406 4.32-.843 6.372-1.309l3.024-.723c3.526-.884 6.814-1.857 9.817-2.914.987-.347 1.937-.705 2.863-1.07 5.029-1.981 9.133-4.211 12.13-6.63 1.496-1.207 3.716-.137 3.716 1.785zm-144.49-52.352v2.841a10 10 0 0 0 10 10h2.583v.797a18.86 18.86 0 0 0 1.964 8.401c1.171 2.361-.941 4.978-3.481 4.274-15.819-4.385-25.895-10.611-25.895-17.393 0-4.169 3.816-8.126 10.426-11.577 2-1.044 4.403.4 4.403 2.657zm42.82 32.638a6.97 6.97 0 0 0-1.917 4.799v11.334c0 3.416-2.449 6.465-5.837 6.901a6.73 6.73 0 0 1-7.607-6.662v-13.403c0-1.691 1.4-3.095 3.088-2.998.343.019.688.029 1.036.029zm39.222-8.642c1.025-1.722 1.794-3.942 1.794-6.726.001-3.789 2.059-7.364 5.545-8.849 7.281-3.101 14.306 2.433 13.899 9.426-.302 5.198-4.829 9.152-10.035 9.152h-9.479c-1.545 0-2.514-1.676-1.724-3.003zm4.306 8.642h11.235c.349 0 .694-.01 1.037-.029 1.688-.097 3.088 1.307 3.088 2.998v13.164c0 3.416-2.449 6.465-5.836 6.901a6.73 6.73 0 0 1-7.607-6.662v-11.573c0-1.858-.733-3.544-1.917-4.799zm-84.348-40.339a8 8 0 0 1 8-8h6.993a1 1 0 1 0 0-2h-.416c-1.042 0-1.857-.946-1.655-1.967 1.543-7.796 8.42-13.694 16.661-13.694h66c8.242 0 15.119 5.898 16.662 13.694.202 1.021-.613 1.967-1.655 1.967a1 1 0 1 0 0 2h6.993a8 8 0 0 1 8 8v10.542a8 8 0 0 1-8 8h-6.993a1 1 0 1 0 0 2h1.196c.44 0 .797.357.797.797 0 9.389-7.611 17-17 17h-10.946c.498-.518.962-1.067 1.399-1.639h5.187c6.105 0 11.448-4.522 12.021-10.599.656-6.974-4.836-12.861-11.677-12.861h-.085c-.84.001-1.529-.687-1.529-1.528v-1.091a8 8 0 0 0-8-8h-5.071a1 1 0 1 0 0 2h5.071a6 6 0 0 1 6 6v1.208l-1.592 2.646c-3.862 1.921-6.525 5.898-6.525 10.495 0 3.662-1.564 6.162-3.068 7.729-1.334 1.388-2.623 2.046-2.732 2.1a1 1 0 0 0-.54 1.124c.088.389.402.668.782.744.064.012.125.033.192.033h8.959c-3.108 3.367-7.543 5.492-12.476 5.492h-16.739c-9.388 0-17-7.612-17-17v-10.705-3.866a6 6 0 0 1 6-6h27.421a1 1 0 1 0 0-2h-27.421a8 8 0 0 0-8 8v14.571a18.86 18.86 0 0 0 3.946 11.556c.5.65.015 1.591-.805 1.591h-8.772c-9.388 0-17-7.611-17-17a.8.8 0 0 1 .798-.797h1.612a1 1 0 1 0 0-2h-6.993a8 8 0 0 1-8-8zm16.583-23.208c0-7.169 5.832-13 13-13h66c7.169 0 13 5.831 13 13v.729c-3.402-3.203-7.969-5.182-13-5.182h-66c-5.03 0-9.597 1.979-13 5.182zm180.502-21.466c-3.363 1.053-6.894.454-9.677-1.591-.336-.247-.477-.697-.342-1.092 1.121-3.266 3.68-5.771 7.042-6.824s6.895-.453 9.677 1.591c.337.247.478.698.342 1.093-1.121 3.266-3.68 5.771-7.042 6.823zm3.752-14.364c.613.399 1.155.87 1.621 1.396.664.751-.13 1.896-1.084 1.583-2.268-.746-4.725-.84-7.136-.232a7.94 7.94 0 0 1-.777-2.581 1.04 1.04 0 0 1 .739-1.123c2.228-.683 4.627-.353 6.637.957zm66.994 119.468H369.42c-6.075 0-11-4.925-11-11v-5.146c.463.029.918.043 1.348.043 1.185 0 2.194-.093 2.734-.178 7.03-1.105 10.914-6.356 11.644-11.07a8.85 8.85 0 0 0 .106-1.769c-.064-1.36.643-2.628 1.769-3.394a20.37 20.37 0 0 0 1.064-.77c5.456-4.21 7.575-9.793 5.814-15.318-1.301-4.086-4.266-7.734-8.349-10.272-4.02-2.499-8.506-3.395-12.302-2.46l-.042.01c-1.924.478-3.786-.978-3.786-2.962V42.886c1.702 2.293 4.139 3.977 7.036 4.743 1.12.297 2.248.442 3.363.442 3.381 0 6.63-1.337 9.103-3.835.254-.256.355-.639.262-.987-1.214-4.513-4.636-7.921-9.154-9.116-2.698-.714-5.443-.548-7.918.407-1.3.502-2.692-.476-2.692-1.869v-1.672a1 1 0 1 0-2 0v38.432a1.73 1.73 0 0 1-2.675 1.446l-.032-.021a9.84 9.84 0 0 0-9.952-.53c-.32.164-.537.496-.557.854-.094 1.685.239 3.301.914 4.754-3.848 1.618-6.642 4.914-7.562 9.061-.078.351.04.729.305.974 2.437 2.251 5.517 3.438 8.696 3.438 1.299 0 2.615-.198 3.909-.603a12.83 12.83 0 0 0 4.179-2.21c1.123-.894 2.775-.125 2.775 1.31v78.369l-2.843 3.824c-.542.157-1.004.424-1.302.885-.254.393-.466 1.071-.038 2.068.362.842 1.082 1.447 1.984 1.877 1.363.647 2.199 2.058 2.199 3.567v6.505a7 7 0 0 1-7 7h-22.784c-1.044 0-1.903-.803-1.987-1.844-.111-1.372-.333-2.73-.669-4.065h1.056c.991 0 1.793-.803 1.793-1.794v-3.453c0-3.241-2.626-5.867-5.866-5.867h-.001c-3.24 0-5.866 2.626-5.866 5.867v3.454c0 .99.802 1.793 1.792 1.793h1.057c-.336 1.334-.558 2.692-.669 4.065-.084 1.041-.943 1.844-1.987 1.844h-11.044c-4.417 0-7.996-3.579-7.993-7.996l.022-35.813c0-6.048-6.278-11.544-16.907-15.9v-.721a10 10 0 0 0-10-10h-.416c-1.426 0-2.692-.983-2.971-2.381a18.89 18.89 0 0 0-3.613-7.899v-2.928c0-8.285-6.715-15-15-15h-66c-8.284 0-15 6.715-15 15v2.928c-.401.518-.774 1.056-1.121 1.614-.159.254-.322.507-.469.77-.941 1.684-1.627 3.526-2.016 5.475a3.03 3.03 0 0 1-2.977 2.421 10 10 0 0 0-10 10v.753c-10.583 4.35-16.829 9.835-16.829 15.868l.021 35.815a7.99 7.99 0 0 1-7.991 7.994h-7.412c-.327 0-.602.167-.785.408-.127.168-.215.366-.215.592a1 1 0 0 0 1 1h15.726c3.683 13.322 38.065 23.442 81.316 23.442s77.631-10.12 81.314-23.442h23.05 3.967 96.669a1 1 0 1 0 0-2zM101.185 32.012c2.648.145 5.002 1.564 6.376 3.875a7.97 7.97 0 0 1 1.101 3.373c.224 2.517-2.55 4.187-4.658 2.795-.983-.649-1.825-1.525-2.458-2.59-1.375-2.31-1.498-5.056-.361-7.453zM52.676 182.138h-1.45v-2.883c0-2.017 1.641-3.659 3.659-3.659s3.658 1.642 3.658 3.659v2.883h-1.45zm2.551 9.861h-.686c-.478 0-.865-.387-.865-.865v-6.996h2.417v6.996c0 .478-.388.865-.866.865zm-13.017 0h-.515c-.477 0-.865-.387-.865-.865v-16.537h2.245v16.537c0 .478-.388.865-.865.865zm-4.48-20.572v-5.879a4.23 4.23 0 0 1 4.223-4.222c2.328 0 4.221 1.894 4.221 4.222v7.049h-7.21c-.351-.449-.765-.844-1.234-1.17zm.235 20.572h-.001c-.477 0-.865-.387-.865-.865v-10.18h1.731v10.18c0 .478-.388.865-.865.865zm-5.05-13.045h-2.067v-2.883c0-2.017 1.642-3.658 3.659-3.658s3.658 1.641 3.658 3.658v2.883h-2.066zm1 13.045h1.184v-11.045h-1.184zM79.271 87.983a10.77 10.77 0 0 1-5.265-8.993 10.77 10.77 0 0 1 10.41.463c2.37 1.429 4.045 3.611 4.808 6.146.515 1.715-.635 3.469-2.396 3.793-2.561.471-5.225-.002-7.557-1.409zm32.305 104.016h-9.35-.344V42.927c.114.099.225.203.344.296a9.84 9.84 0 0 0 6.146 2.129l.168-.001a1 1 0 0 0 .855-.508c1.774-3.145 1.731-6.875-.114-9.978-1.616-2.716-4.319-4.419-7.385-4.779-.005-.007-.008-.011-.014-.017v-9.07a1 1 0 1 0-2 0v9.292a.99.99 0 0 0-.17.219c-1.774 3.144-1.731 6.875.115 9.978.016.028.038.052.055.08v.431 147a4 4 0 1 1-8 0v-147-3.323a1 1 0 1 0-2 0v44.502a12.89 12.89 0 0 0-4.432-4.437 12.76 12.76 0 0 0-12.924-.233c-.311.173-.513.508-.521.863-.102 4.676 2.228 8.909 6.233 11.325 2.071 1.249 4.362 1.875 6.657 1.875h.052c2.699-.012 4.935 2.066 4.935 4.765v93.663a2 2 0 0 1-2 2H58.958c-.478 0-.865-.387-.865-.865v-6.996h1.45a1 1 0 0 0 1-1v-3.685c0-2.876-2.062-5.442-4.914-5.809-3.451-.443-6.403 2.246-6.403 5.611v3.883a1 1 0 0 0 1 1h1.45v6.996c0 .478-.388.865-.866.865h-4.87c-.477 0-.865-.387-.865-.865v-16.537h2.099a1 1 0 0 0 1-1v-8.049c0-2.567-1.562-4.774-3.786-5.723-.727-.311-1.162-1.067-1.162-1.858V90.908a1 1 0 1 0-2 0v66.894c0 .841-.526 1.597-1.321 1.875-2.428.847-4.175 3.158-4.175 5.871v5.002c-.858-.19-1.784-.202-2.751.087-2.511.75-4.131 3.202-4.131 5.822v3.495a1 1 0 0 0 1 1h2.067v10.18c0 .478-.388.865-.865.865H9.615a1 1 0 1 0 0 2h101.961a1 1 0 0 0 1-1c0-.226-.089-.424-.216-.591a.98.98 0 0 0-.784-.409z"/><path d="M208.102 66.777c1.586-1.848 3.894-2.908 6.329-2.908a8.33 8.33 0 0 1 6.329 2.908c2.25 2.621 2.646 6.417.985 9.445l-6.559 11.961c-.221.403-.602.447-.755.447s-.534-.044-.755-.447l-6.559-11.961c-1.661-3.028-1.265-6.824.985-9.445zm3.82 22.368c.511.93 1.449 1.485 2.51 1.485s1.998-.556 2.508-1.485l6.559-11.961c2.059-3.755 1.568-8.461-1.221-11.71-1.968-2.291-4.827-3.605-7.847-3.605s-5.879 1.314-7.847 3.605c-2.789 3.25-3.28 7.955-1.221 11.71zm-34.553 55.406c2.042 0 4.085-.7 5.533-2.1a1.5 1.5 0 0 0-2.085-2.157c-1.74 1.682-5.156 1.683-6.896 0a1.5 1.5 0 0 0-2.085 2.157c1.448 1.4 3.49 2.1 5.533 2.1m73.998 0c2.042 0 4.085-.7 5.533-2.099a1.5 1.5 0 0 0-2.085-2.157c-1.74 1.683-5.156 1.682-6.896 0a1.5 1.5 0 0 0-2.085 2.157c1.448 1.399 3.49 2.099 5.533 2.099m132.494-28.213h.51a1 1 0 0 1 1 1v.51a1 1 0 1 0 2 0v-.51a1 1 0 0 1 1-1h.511a1 1 0 1 0 0-2h-.511a1 1 0 0 1-1-1v-.51a1 1 0 1 0-2 0v.51a1 1 0 0 1-1 1h-.51a1 1 0 1 0 0 2M146.175 68.04a1.51 1.51 0 0 1 1.51 1.51 1 1 0 1 0 2 0 1.51 1.51 0 0 1 1.51-1.51 1 1 0 1 0 0-2 1.51 1.51 0 0 1-1.51-1.51 1 1 0 1 0-2 0 1.51 1.51 0 0 1-1.51 1.51 1 1 0 1 0 0 2m24.736 8.424a1.51 1.51 0 0 1 1.51 1.51 1 1 0 1 0 2 0 1.51 1.51 0 0 1 1.51-1.51 1 1 0 1 0 0-2 1.51 1.51 0 0 1-1.51-1.51 1 1 0 1 0-2 0 1.51 1.51 0 0 1-1.51 1.51 1 1 0 1 0 0 2m-29.659 16.767c.256 0 .512-.098.707-.293l1.183-1.183a1 1 0 0 0-1.414-1.414l-1.183 1.183a1 1 0 0 0 0 1.414c.195.195.451.293.707.293m-5.917 5.916c.256 0 .512-.098.707-.293l1.184-1.184a1 1 0 0 0-1.414-1.414l-1.184 1.184a1 1 0 0 0 0 1.414c.195.195.451.293.707.293m6.393-.293c.195.195.451.293.707.293s.512-.098.707-.293a1 1 0 0 0 0-1.414l-1.183-1.184a1 1 0 0 0-1.414 1.414zm-5.916-5.916c.195.195.451.293.707.293s.512-.098.707-.293a1 1 0 0 0 0-1.414l-1.184-1.183a1 1 0 0 0-1.414 1.414zm239.803 10.02a1.51 1.51 0 1 1 0-3.02 1.51 1.51 0 1 1 0 3.02m0-5.02c-1.935 0-3.51 1.575-3.51 3.51s1.575 3.51 3.51 3.51 3.51-1.575 3.51-3.51-1.574-3.51-3.51-3.51"/></g></g></svg>